<svg width="45" height="52" viewBox="0 0 45 52" fill="none" xmlns="http://www.w3.org/2000/svg">
<g clip-path="url(#clip0_159_642)">
<path d="M25.8534 16.7542C20.9944 16.9338 8.94181 18.3007 8.94181 28.4776C8.94181 39.4027 22.7404 39.8517 27.2502 32.7878C27.8987 33.8055 30.7822 36.5293 31.7699 37.4572L37.437 31.8699C37.437 31.8699 34.2144 29.3456 34.2144 26.6018V11.9252C34.2144 9.40094 31.7699 3.71387 23.0098 3.71387C14.2298 3.71387 9.57039 9.20139 9.57039 14.1202L16.9037 14.7987C18.53 9.8599 22.3114 9.8599 22.3114 9.8599C26.3722 9.84992 25.8534 12.8331 25.8534 16.7542ZM25.8534 25.4145C25.8534 33.3964 17.4525 32.1991 17.4525 27.1306C17.4525 22.4213 22.491 21.4735 25.8534 21.3637V25.4145ZM39.4225 41.7275C38.6543 42.7252 32.4384 48.4123 22.0121 48.4123C11.5858 48.4123 3.60395 41.2785 1.15951 38.3352C0.48105 37.5669 1.25928 37.2077 1.70826 37.507C9.02163 41.947 20.4457 49.2603 38.8738 40.5302C39.6221 40.161 40.2008 40.7297 39.4225 41.7275ZM43.3935 41.947C42.745 43.5234 41.7971 44.6209 41.2783 45.0399C40.7295 45.4889 40.3305 45.3093 40.6298 44.6608C40.9291 44.0123 42.5554 40.0213 41.8969 39.1733C41.2484 38.3451 38.2053 38.7442 37.1078 38.854C36.0302 38.9538 35.8107 39.0535 35.711 38.8241C35.4815 38.2553 37.876 37.2776 39.4524 37.078C41.0189 36.8984 43.5432 36.9982 44.042 37.6467C44.4112 38.1556 44.042 40.3506 43.3935 41.947Z" fill="white"/>
</g>
<defs>
<clipPath id="clip0_159_642">
<rect width="44.6984" height="51.0839" fill="white" transform="translate(0.191711 0.521118)"/>
</clipPath>
</defs>
</svg>
