<svg width="39" height="52" viewBox="0 0 39 52" fill="none" xmlns="http://www.w3.org/2000/svg">
<g clip-path="url(#clip0_159_646)">
<path d="M31.9395 27.3302C31.9195 23.6685 33.5757 20.9048 36.9281 18.8694C35.0524 16.1855 32.2188 14.7089 28.4773 14.4195C24.9354 14.1402 21.0642 16.4848 19.6474 16.4848C18.1508 16.4848 14.7186 14.5193 12.0247 14.5193C6.45738 14.6091 0.540833 18.9592 0.540833 27.8091C0.540833 30.4231 1.01974 33.1237 1.97757 35.9107C3.25466 39.5723 7.86418 48.5519 12.6733 48.4023C15.1875 48.3424 16.9635 46.6163 20.2361 46.6163C23.4088 46.6163 25.0551 48.4023 27.8587 48.4023C32.7077 48.3324 36.8782 40.171 38.0955 36.4993C31.5902 33.4363 31.9395 27.5198 31.9395 27.3302ZM26.2923 10.9474C29.0161 7.71477 28.7667 4.77146 28.6868 3.71387C26.2823 3.85355 23.4986 5.35015 21.9122 7.19595C20.1662 9.17146 19.1386 11.6159 19.3581 14.3696C21.9621 14.5692 24.3367 13.2322 26.2923 10.9474Z" fill="white"/>
</g>
<defs>
<clipPath id="clip0_159_646">
<rect width="38.3129" height="51.0839" fill="white" transform="translate(0.141739 0.521118)"/>
</clipPath>
</defs>
</svg>
