<svg width="33" height="33" viewBox="0 0 33 33" fill="none" xmlns="http://www.w3.org/2000/svg">
<path d="M12.4528 16.5614L15.1176 19.2262L20.4472 13.8966M28.4417 16.5614C28.4417 18.1361 28.1315 19.6955 27.5289 21.1504C26.9262 22.6053 26.0429 23.9272 24.9294 25.0408C23.8159 26.1543 22.4939 27.0376 21.039 27.6402C19.5841 28.2429 18.0248 28.553 16.45 28.553C14.8752 28.553 13.3159 28.2429 11.861 27.6402C10.4061 27.0376 9.08414 26.1543 7.97061 25.0408C6.85708 23.9272 5.97378 22.6053 5.37115 21.1504C4.76851 19.6955 4.45834 18.1361 4.45834 16.5614C4.45834 13.381 5.72174 10.3309 7.97061 8.08198C10.2195 5.83311 13.2696 4.5697 16.45 4.5697C19.6304 4.5697 22.6805 5.83311 24.9294 8.08198C27.1783 10.3309 28.4417 13.381 28.4417 16.5614Z" stroke="url(#paint0_linear_159_669)" stroke-width="2.39833" stroke-linecap="round" stroke-linejoin="round"/>
<defs>
<linearGradient id="paint0_linear_159_669" x1="4.45834" y1="16.5614" x2="28.4417" y2="16.5614" gradientUnits="userSpaceOnUse">
<stop stop-color="#FE572E"/>
<stop offset="1" stop-color="#FC3A79"/>
</linearGradient>
</defs>
</svg>
