<svg width="51" height="52" viewBox="0 0 51 52" fill="none" xmlns="http://www.w3.org/2000/svg">
<g clip-path="url(#clip0_159_648)">
<path d="M17.0909 40.171C17.0909 40.3706 16.8614 40.5302 16.5721 40.5302C16.2428 40.5601 16.0133 40.4005 16.0133 40.171C16.0133 39.9715 16.2428 39.8118 16.5322 39.8118C16.8315 39.7819 17.0909 39.9415 17.0909 40.171ZM13.9879 39.722C13.9181 39.9216 14.1176 40.1511 14.417 40.2109C14.6764 40.3107 14.9757 40.2109 15.0356 40.0114C15.0954 39.8118 14.9059 39.5823 14.6065 39.4926C14.3471 39.4227 14.0578 39.5225 13.9879 39.722ZM18.3979 39.5524C18.1086 39.6223 17.909 39.8118 17.939 40.0413C17.9689 40.2409 18.2283 40.3706 18.5276 40.3007C18.817 40.2309 19.0165 40.0413 18.9866 39.8418C18.9566 39.6522 18.6873 39.5225 18.3979 39.5524ZM24.963 1.31934C11.1244 1.31934 0.538513 11.8255 0.538513 25.664C0.538513 36.7288 7.50268 46.1973 17.4501 49.5297C18.7272 49.7592 19.1761 48.971 19.1761 48.3225C19.1761 47.7039 19.1462 44.2916 19.1462 42.1964C19.1462 42.1964 12.1621 43.693 10.6954 39.2232C10.6954 39.2232 9.55801 36.3198 7.92173 35.5715C7.92173 35.5715 5.63692 34.005 8.08137 34.035C8.08137 34.035 10.5657 34.2345 11.9326 36.6091C14.1176 40.4604 17.7793 39.3529 19.2061 38.6944C19.4356 37.098 20.0841 35.9905 20.8024 35.332C15.2251 34.7134 9.59792 33.9053 9.59792 24.3071C9.59792 21.5633 10.3562 20.1864 11.9526 18.4304C11.6932 17.7819 10.8451 15.108 12.212 11.6558C14.2972 11.0073 19.0963 14.3497 19.0963 14.3497C21.0918 13.791 23.2369 13.5016 25.3621 13.5016C27.4873 13.5016 29.6324 13.791 31.6278 14.3497C31.6278 14.3497 36.4269 10.9973 38.5122 11.6558C39.8791 15.118 39.031 17.7819 38.7716 18.4304C40.368 20.1964 41.3457 21.5733 41.3457 24.3071C41.3457 33.9352 35.4691 34.7034 29.8918 35.332C30.8097 36.1202 31.5879 37.6168 31.5879 39.9615C31.5879 43.3238 31.558 47.4844 31.558 48.3025C31.558 48.951 32.017 49.7393 33.2841 49.5098C43.2614 46.1973 50.026 36.7288 50.026 25.664C50.026 11.8255 38.8015 1.31934 24.963 1.31934ZM10.2365 35.7311C10.1068 35.8309 10.1367 36.0604 10.3063 36.2499C10.4659 36.4096 10.6954 36.4794 10.8251 36.3497C10.9548 36.2499 10.9249 36.0204 10.7553 35.8309C10.5957 35.6712 10.3662 35.6014 10.2365 35.7311ZM9.15892 34.9229C9.08908 35.0526 9.18885 35.2123 9.3884 35.3121C9.54803 35.4118 9.74758 35.3819 9.81742 35.2422C9.88726 35.1125 9.78749 34.9529 9.58794 34.8531C9.3884 34.7932 9.22876 34.8232 9.15892 34.9229ZM12.3916 38.4749C12.2319 38.6046 12.2918 38.9039 12.5213 39.0935C12.7508 39.3229 13.0401 39.3529 13.1698 39.1932C13.2995 39.0635 13.2396 38.7642 13.0401 38.5746C12.8206 38.3452 12.5213 38.3152 12.3916 38.4749ZM11.2542 37.0082C11.0945 37.108 11.0945 37.3674 11.2542 37.5969C11.4138 37.8263 11.6832 37.9261 11.8129 37.8263C11.9725 37.6966 11.9725 37.4372 11.8129 37.2077C11.6732 36.9783 11.4138 36.8785 11.2542 37.0082Z" fill="white"/>
</g>
<defs>
<clipPath id="clip0_159_648">
<rect width="49.4875" height="51.0839" fill="white" transform="translate(0.538483 0.521118)"/>
</clipPath>
</defs>
</svg>
