<svg width="49" height="48" viewBox="0 0 49 48" fill="none" xmlns="http://www.w3.org/2000/svg">
<path d="M48.2968 16.3291C48.2858 16.271 48.2762 16.2128 48.2606 16.1558C48.2509 16.1215 48.2393 16.0893 48.2284 16.0555C48.2126 16.0049 48.1949 15.9548 48.1753 15.9055C48.1611 15.8714 48.1449 15.8384 48.1294 15.8054C48.1078 15.7588 48.0843 15.7131 48.0589 15.6685C48.0409 15.6355 48.0201 15.6044 48.0002 15.5729C47.9522 15.4982 47.8995 15.4267 47.8423 15.3588C47.8097 15.3203 47.7757 15.283 47.7403 15.247C47.7131 15.2198 47.6859 15.1927 47.6574 15.1662C47.6199 15.132 47.5809 15.0995 47.5404 15.0687C47.5095 15.0447 47.4791 15.02 47.4467 14.998C47.4353 14.9898 47.4248 14.98 47.4126 14.9722L25.4766 0.347151C25.1379 0.121119 24.7399 0.000488281 24.3327 0.000488281C23.9256 0.000488281 23.5275 0.121119 23.1889 0.347151L1.25138 14.9718C1.2392 14.9795 1.22963 14.9892 1.21726 14.9977C1.18501 15.0202 1.15463 15.0442 1.12351 15.0682C1.08367 15.0994 1.04466 15.1318 1.00651 15.1651C0.978183 15.191 0.95079 15.2179 0.924383 15.2457C0.888195 15.2821 0.854633 15.3188 0.821633 15.3577C0.797258 15.3867 0.77382 15.4158 0.751133 15.4482C0.720195 15.4889 0.691695 15.5303 0.663945 15.5737C0.643883 15.6053 0.62382 15.6363 0.60507 15.6693C0.57991 15.7135 0.556639 15.7588 0.53532 15.805C0.519758 15.838 0.50307 15.8716 0.489383 15.9052C0.46932 15.9543 0.451883 16.0047 0.435758 16.0552C0.424883 16.0889 0.413258 16.1217 0.40407 16.1521C0.38907 16.2089 0.378195 16.2665 0.367883 16.3253C0.362258 16.3552 0.354945 16.3842 0.351008 16.4146C0.339383 16.5037 0.333008 16.5929 0.333008 16.684V31.312C0.333008 31.4024 0.339383 31.493 0.35232 31.5815C0.357008 31.6139 0.365445 31.6396 0.37182 31.6707C0.382133 31.7288 0.391133 31.787 0.410633 31.8453C0.419633 31.8775 0.429945 31.91 0.442883 31.9454C0.459008 31.9972 0.475133 32.0489 0.494633 32.0962C0.508133 32.1284 0.526883 32.1607 0.53982 32.1931C0.561195 32.2383 0.585195 32.2835 0.61107 32.3307C0.62907 32.363 0.649695 32.3954 0.669195 32.425C0.696945 32.4704 0.72732 32.5092 0.75957 32.5478C0.782258 32.5803 0.804945 32.606 0.83082 32.6371C0.863633 32.6759 0.89532 32.7147 0.934133 32.749C0.96057 32.7747 0.985883 32.8072 1.01813 32.8265C1.05563 32.8589 1.09576 32.8912 1.13438 32.9247C1.16551 32.9506 1.19926 32.9701 1.22495 32.9952C1.23732 33.0016 1.24445 33.0145 1.25738 33.0203L23.1889 47.6528C23.5267 47.8809 23.9254 48.0018 24.333 47.9999C24.7402 47.9991 25.1381 47.8785 25.4771 47.653L47.4146 33.028C47.4268 33.0205 47.4371 33.0113 47.4488 33.0029C47.481 32.9804 47.5114 32.9564 47.5425 32.9326C47.5826 32.9007 47.622 32.8679 47.6595 32.8343C47.6878 32.809 47.715 32.7813 47.7422 32.7541C47.8044 32.6913 47.8621 32.6241 47.9147 32.5531C47.9458 32.5124 47.9743 32.4704 48.0021 32.4277C48.0221 32.3967 48.0422 32.365 48.0609 32.3333C48.0868 32.288 48.1093 32.2422 48.1313 32.1957C48.1468 32.1627 48.1631 32.1297 48.1772 32.0962C48.1973 32.0463 48.2141 31.9958 48.2303 31.9454C48.2411 31.9118 48.2528 31.8788 48.2625 31.8453C48.2775 31.7885 48.2878 31.7302 48.2987 31.672C48.3039 31.6422 48.3118 31.6132 48.3148 31.5828C48.3266 31.4937 48.333 31.4045 48.333 31.3133V16.6878C48.333 16.5967 48.3259 16.5074 48.3148 16.4182C48.3098 16.3865 48.3 16.3608 48.2936 16.3291H48.2968ZM24.3324 28.8794L17.0378 24.0005L24.3324 19.1208L31.6275 24.0005L24.3324 28.8794ZM22.2703 15.5378L13.3281 21.5191L6.10988 16.6902L22.2705 5.91684V15.5378H22.2703ZM9.61838 23.9997L4.45895 27.4508V20.5488L9.61838 23.9997ZM13.3281 26.4832L22.2705 32.4637V42.0847L6.10988 31.31L13.3283 26.4818V26.4832H13.3281ZM26.3949 32.4625L35.3372 26.482L42.5561 31.31L26.3949 42.0833V32.4623V32.4625ZM39.0469 24.001L44.2071 20.5493V27.4522L39.0471 23.9997V24.001H39.0469ZM35.3372 21.5189L26.3949 15.5384V5.91684L42.5561 16.6904L35.3374 21.5189H35.3372Z" fill="#CCCCCC"/>
</svg>
