<svg width="21" height="29" viewBox="0 0 21 29" fill="none" xmlns="http://www.w3.org/2000/svg">
<g clip-path="url(#clip0_159_379)">
<path d="M5.76071 28.997C8.40978 28.997 10.5597 26.847 10.5597 24.198V19.3989H5.76071C3.11164 19.3989 0.96167 21.5489 0.96167 24.198C0.96167 26.847 3.11164 28.997 5.76071 28.997Z" fill="#0ACF83"/>
<path d="M0.96167 14.5998C0.96167 11.9508 3.11164 9.80078 5.76071 9.80078H10.5597V19.3989H5.76071C3.11164 19.3989 0.96167 17.2489 0.96167 14.5998Z" fill="#A259FF"/>
<path d="M0.961182 5.00217C0.961182 2.3531 3.11115 0.203125 5.76022 0.203125H10.5593V9.80121H5.76022C3.11115 9.80121 0.961182 7.65124 0.961182 5.00217Z" fill="#F24E1E"/>
<path d="M10.5598 0.203125H15.3589C18.0079 0.203125 20.1579 2.3531 20.1579 5.00217C20.1579 7.65124 18.0079 9.80121 15.3589 9.80121H10.5598V0.203125Z" fill="#FF7262"/>
<path d="M20.1579 14.5998C20.1579 17.2489 18.0079 19.3989 15.3589 19.3989C12.7098 19.3989 10.5598 17.2489 10.5598 14.5998C10.5598 11.9508 12.7098 9.80078 15.3589 9.80078C18.0079 9.80078 20.1579 11.9508 20.1579 14.5998Z" fill="#1ABCFE"/>
</g>
<defs>
<clipPath id="clip0_159_379">
<rect width="19.2" height="28.7942" fill="white" transform="translate(0.959839 0.203125)"/>
</clipPath>
</defs>
</svg>
