<svg width="39" height="39" viewBox="0 0 39 39" fill="none" xmlns="http://www.w3.org/2000/svg">
<path d="M7.27974 0.879883H32.0797C35.8397 0.879883 38.8797 3.91988 38.8797 7.67988V31.5199C38.8797 35.2799 35.8397 38.3199 32.0797 38.3199H7.27974C3.51974 38.3199 0.479736 35.2799 0.479736 31.5199V7.67988C0.479736 3.91988 3.51974 0.879883 7.27974 0.879883Z" fill="#330000"/>
<path d="M19.0397 23.2799H13.0877L11.8717 27.0399C11.8397 27.1839 11.7117 27.2799 11.5677 27.2639H8.55974C8.38374 27.2639 8.33574 27.1679 8.38374 26.9759L13.5357 12.1439C13.5837 11.9839 13.6317 11.8079 13.6957 11.6159C13.7597 11.2799 13.7917 10.9279 13.7917 10.5759C13.7757 10.4959 13.8397 10.4159 13.9197 10.3999H13.9677H18.0637C18.1917 10.3999 18.2557 10.4479 18.2717 10.5279L24.1117 27.0079C24.1597 27.1839 24.1117 27.2639 23.9517 27.2639H20.6077C20.4957 27.2799 20.3837 27.1999 20.3517 27.0879L19.0397 23.2799ZM14.0157 20.0319H18.0797C17.9837 19.6959 17.8557 19.2959 17.7117 18.8799C17.5677 18.4479 17.4237 17.9839 17.2797 17.5039C17.1197 17.0079 16.9757 16.5279 16.8157 16.0319C16.6557 15.5359 16.5117 15.0719 16.3837 14.6079C16.2557 14.1599 16.1437 13.7439 16.0317 13.3599H15.9997C15.8557 14.0479 15.6797 14.7359 15.4557 15.4239C15.2157 16.1919 14.9757 16.9919 14.7197 17.7919C14.4957 18.6079 14.2557 19.3599 14.0157 20.0319Z" fill="#FF9A00"/>
<path d="M27.6797 13.1996C27.1517 13.2156 26.6397 13.0076 26.2557 12.6396C25.8877 12.2396 25.6957 11.7116 25.7117 11.1676C25.6957 10.6236 25.9037 10.1116 26.2877 9.74359C26.6717 9.37559 27.1837 9.18359 27.7117 9.18359C28.3357 9.18359 28.8157 9.37559 29.1677 9.74359C29.5197 10.1276 29.7117 10.6396 29.6957 11.1676C29.7117 11.7116 29.5197 12.2396 29.1357 12.6396C28.7677 13.0236 28.2237 13.2316 27.6797 13.1996ZM25.8877 27.0876V14.7676C25.8877 14.6076 25.9517 14.5436 26.0957 14.5436H29.2637C29.4077 14.5436 29.4717 14.6236 29.4717 14.7676V27.0876C29.4717 27.2636 29.4077 27.3436 29.2637 27.3436H26.1277C25.9677 27.3436 25.8877 27.2476 25.8877 27.0876Z" fill="#FF9A00"/>
</svg>
