<svg width="39" height="39" viewBox="0 0 39 39" fill="none" xmlns="http://www.w3.org/2000/svg">
<g clip-path="url(#clip0_159_399)">
<path d="M7.23958 0.879883H32.0396C35.7996 0.879883 38.8396 3.91988 38.8396 7.67988V31.5199C38.8396 35.2799 35.7996 38.3199 32.0396 38.3199H7.23958C3.47958 38.3199 0.439575 35.2799 0.439575 31.5199V7.67988C0.439575 3.91988 3.47958 0.879883 7.23958 0.879883Z" fill="#001E36"/>
<path d="M8 27.736V11.272C8 11.16 8.048 11.096 8.16 11.096C8.432 11.096 8.688 11.096 9.056 11.08C9.44 11.064 9.84 11.064 10.272 11.048C10.704 11.032 11.168 11.032 11.664 11.016C12.16 11 12.64 11 13.12 11C14.432 11 15.52 11.16 16.416 11.496C17.216 11.768 17.952 12.216 18.56 12.808C19.072 13.32 19.472 13.944 19.728 14.632C19.968 15.304 20.096 15.992 20.096 16.712C20.096 18.088 19.776 19.224 19.136 20.12C18.496 21.016 17.6 21.688 16.56 22.072C15.472 22.472 14.272 22.616 12.96 22.616C12.576 22.616 12.32 22.616 12.16 22.6C12 22.584 11.776 22.584 11.472 22.584V27.72C11.488 27.832 11.408 27.928 11.296 27.944C11.28 27.944 11.264 27.944 11.232 27.944H8.192C8.064 27.944 8 27.88 8 27.736ZM11.488 14.184V19.56C11.712 19.576 11.92 19.592 12.112 19.592H12.96C13.584 19.592 14.208 19.496 14.8 19.304C15.312 19.16 15.76 18.856 16.112 18.456C16.448 18.056 16.608 17.512 16.608 16.808C16.624 16.312 16.496 15.816 16.24 15.384C15.968 14.968 15.584 14.648 15.12 14.472C14.528 14.232 13.888 14.136 13.232 14.152C12.816 14.152 12.448 14.152 12.144 14.168C11.824 14.152 11.6 14.168 11.488 14.184Z" fill="#31A8FF"/>
<path d="M31.1598 17.9837C30.6798 17.7277 30.1678 17.5517 29.6238 17.4397C29.0318 17.3117 28.4398 17.2317 27.8318 17.2317C27.5118 17.2157 27.1758 17.2637 26.8718 17.3437C26.6638 17.3917 26.4878 17.5037 26.3758 17.6637C26.2958 17.7917 26.2478 17.9517 26.2478 18.0957C26.2478 18.2397 26.3118 18.3837 26.4078 18.5117C26.5518 18.6877 26.7438 18.8317 26.9518 18.9437C27.3198 19.1357 27.7038 19.3117 28.0878 19.4717C28.9518 19.7597 29.7838 20.1597 30.5518 20.6397C31.0798 20.9757 31.5118 21.4237 31.8158 21.9677C32.0718 22.4797 32.1998 23.0397 32.1838 23.6157C32.1998 24.3677 31.9758 25.1197 31.5598 25.7437C31.1118 26.3837 30.4878 26.8797 29.7678 27.1677C28.9838 27.5037 28.0238 27.6797 26.8718 27.6797C26.1358 27.6797 25.4158 27.6157 24.6958 27.4717C24.1358 27.3757 23.5758 27.1997 23.0638 26.9597C22.9518 26.8957 22.8718 26.7837 22.8878 26.6557V23.8717C22.8878 23.8237 22.9038 23.7597 22.9518 23.7277C22.9998 23.6957 23.0478 23.7117 23.0958 23.7437C23.7198 24.1117 24.3758 24.3677 25.0798 24.5277C25.6878 24.6877 26.3278 24.7677 26.9678 24.7677C27.5758 24.7677 28.0078 24.6877 28.2958 24.5437C28.5518 24.4317 28.7278 24.1597 28.7278 23.8717C28.7278 23.6477 28.5998 23.4397 28.3438 23.2317C28.0878 23.0237 27.5598 22.7837 26.7758 22.4797C25.9598 22.1917 25.2078 21.8077 24.5038 21.3277C24.0078 20.9757 23.5918 20.5117 23.2878 19.9677C23.0318 19.4557 22.9038 18.8957 22.9198 18.3357C22.9198 17.6477 23.1118 16.9917 23.4638 16.3997C23.8638 15.7597 24.4558 15.2477 25.1438 14.9277C25.8958 14.5437 26.8398 14.3677 27.9758 14.3677C28.6318 14.3677 29.3038 14.4157 29.9598 14.5117C30.4398 14.5757 30.9038 14.7037 31.3358 14.8797C31.3998 14.8957 31.4638 14.9597 31.4958 15.0237C31.5118 15.0877 31.5278 15.1517 31.5278 15.2157V17.8237C31.5278 17.8877 31.4958 17.9517 31.4478 17.9837C31.3038 18.0157 31.2238 18.0157 31.1598 17.9837Z" fill="#31A8FF"/>
</g>
<defs>
<clipPath id="clip0_159_399">
<rect width="38.4" height="37.44" fill="white" transform="translate(0.439575 0.879883)"/>
</clipPath>
</defs>
</svg>
