<svg width="52" height="52" viewBox="0 0 52 52" fill="none" xmlns="http://www.w3.org/2000/svg">
<path d="M42.4799 46.2557H9.91986V6.25569C9.91986 6.24083 9.924 6.22627 9.93181 6.21363C9.93962 6.201 9.9508 6.19078 9.96408 6.18414C9.97737 6.17749 9.99225 6.17468 10.007 6.17602C10.0218 6.17735 10.036 6.18278 10.0479 6.19169L13.3359 9.27169C13.3514 9.28168 13.3694 9.28699 13.3879 9.28699C13.4063 9.28699 13.4244 9.28168 13.4399 9.27169L16.0799 6.15969C16.0931 6.14788 16.1102 6.14136 16.1279 6.14136C16.1456 6.14136 16.1627 6.14788 16.1759 6.15969L19.1519 9.27969C19.1669 9.29074 19.1852 9.2967 19.2039 9.2967C19.2226 9.2967 19.2408 9.29074 19.2559 9.27969L21.8879 6.16769C21.8946 6.16067 21.9027 6.15509 21.9116 6.15127C21.9205 6.14746 21.9301 6.14549 21.9399 6.14549C21.9496 6.14549 21.9592 6.14746 21.9681 6.15127C21.9771 6.15509 21.9851 6.16067 21.9919 6.16769L24.2799 9.26369C24.2956 9.2767 24.3154 9.28381 24.3359 9.28381C24.3563 9.28381 24.3761 9.2767 24.3919 9.26369L26.9999 6.16769C27.0066 6.16067 27.0147 6.15509 27.0236 6.15127C27.0325 6.14746 27.0421 6.14549 27.0519 6.14549C27.0616 6.14549 27.0712 6.14746 27.0801 6.15127C27.0891 6.15509 27.0971 6.16067 27.1039 6.16769L29.2559 9.25569C29.2708 9.27035 29.2909 9.27856 29.3119 9.27856C29.3328 9.27856 29.3529 9.27035 29.3679 9.25569L31.6719 6.16769C31.6868 6.15303 31.7069 6.14482 31.7279 6.14482C31.7488 6.14482 31.7689 6.15303 31.7839 6.16769L34.0639 9.25569C34.0788 9.27035 34.0989 9.27856 34.1199 9.27856C34.1408 9.27856 34.1609 9.27035 34.1759 9.25569L36.3599 6.18369C36.3664 6.17379 36.3753 6.16567 36.3858 6.16005C36.3963 6.15443 36.408 6.15149 36.4199 6.15149C36.4317 6.15149 36.4434 6.15443 36.4539 6.16005C36.4644 6.16567 36.4733 6.17379 36.4799 6.18369L38.2799 9.25569C38.2949 9.26674 38.3132 9.2727 38.3319 9.2727C38.3506 9.2727 38.3688 9.26674 38.3839 9.25569L42.3839 6.15969C42.3962 6.15254 42.4103 6.14883 42.4246 6.14895C42.4388 6.14906 42.4528 6.153 42.4651 6.16035C42.4773 6.16769 42.4874 6.17819 42.4942 6.19073C42.501 6.20328 42.5044 6.21742 42.5039 6.23169L42.4799 46.2557Z" stroke="#FE572E" stroke-width="2.4" stroke-linecap="round"/>
<path d="M26.2721 15.6479L28.4401 20.0399C28.4446 20.0512 28.4523 20.061 28.4622 20.068C28.4721 20.0751 28.4839 20.0792 28.4961 20.0799L33.3441 20.7839C33.3556 20.791 33.3652 20.8011 33.3718 20.813C33.3784 20.8249 33.3819 20.8383 33.3819 20.8519C33.3819 20.8655 33.3784 20.8789 33.3718 20.8908C33.3652 20.9027 33.3556 20.9127 33.3441 20.9199L29.8801 24.3359C29.8732 24.3594 29.8732 24.3844 29.8801 24.4079L30.6801 29.2079C30.6811 29.2227 30.6784 29.2375 30.6721 29.251C30.6659 29.2645 30.6563 29.2762 30.6443 29.2849C30.6323 29.2937 30.6183 29.2993 30.6036 29.3012C30.5889 29.3032 30.5739 29.3013 30.5601 29.2959L26.2321 27.0159C26.2202 27.008 26.2063 27.0037 26.1921 27.0037C26.1778 27.0037 26.1639 27.008 26.1521 27.0159L21.8321 29.3199C21.8182 29.3253 21.8033 29.3272 21.7885 29.3252C21.7738 29.3233 21.7598 29.3177 21.7478 29.3089C21.7358 29.3002 21.7263 29.2885 21.72 29.275C21.7138 29.2615 21.711 29.2467 21.7121 29.2319L22.5121 24.4319C22.5189 24.4084 22.5189 24.3834 22.5121 24.3599L19.0001 20.9199C18.9896 20.9097 18.982 20.8969 18.9783 20.8828C18.9746 20.8687 18.9748 20.8538 18.9789 20.8398C18.983 20.8258 18.9909 20.8131 19.0017 20.8033C19.0125 20.7934 19.0257 20.7867 19.0401 20.7839L23.8881 20.0799C23.9002 20.0792 23.912 20.0751 23.9219 20.068C23.9318 20.061 23.9395 20.0512 23.9441 20.0399L26.1121 15.6479C26.1121 15.6267 26.1205 15.6063 26.1355 15.5913C26.1505 15.5763 26.1708 15.5679 26.1921 15.5679C26.2133 15.5679 26.2336 15.5763 26.2486 15.5913C26.2636 15.6063 26.2721 15.6267 26.2721 15.6479Z" stroke="#FE572E" stroke-width="2.4" stroke-linecap="round"/>
<path d="M16.136 35.0317H37.416" stroke="#FE572E" stroke-width="2.4" stroke-linecap="round"/>
<path d="M16.136 40.0239H37.416" stroke="#FE572E" stroke-width="2.4" stroke-linecap="round"/>
</svg>
