<svg width="48" height="56" viewBox="0 0 48 56" fill="none" xmlns="http://www.w3.org/2000/svg">
<path d="M48 28.0049C48 24.8251 44.0179 21.8116 37.9128 19.9429C39.3216 13.7203 38.6955 8.76964 35.9364 7.18464C35.3004 6.81285 34.5569 6.63674 33.7448 6.63674V8.81856C34.1949 8.81856 34.5569 8.90661 34.8602 9.07294C36.1908 9.83608 36.768 12.7419 36.318 16.4794C36.2104 17.3991 36.0342 18.3677 35.819 19.3559C33.9013 18.8862 31.8076 18.5242 29.6062 18.2894C28.2854 16.4794 26.9156 14.8357 25.5361 13.3974C28.7256 10.4329 31.7195 8.80877 33.7546 8.80877V6.62695C31.064 6.62695 27.5418 8.54461 23.9804 11.8711C20.4191 8.56417 16.8969 6.66609 14.2063 6.66609V8.84791C16.2316 8.84791 19.2352 10.4623 22.4248 13.4072C21.055 14.8455 19.6853 16.4794 18.384 18.2894C16.1729 18.5242 14.0791 18.8862 12.1614 19.3656C11.9364 18.3872 11.7701 17.4382 11.6527 16.5283C11.1928 12.7908 11.7603 9.885 13.0811 9.11207C13.3746 8.93596 13.7562 8.85769 14.2063 8.85769V6.67587C13.3844 6.67587 12.6408 6.85198 11.9951 7.22377C9.24582 8.80877 8.62943 13.7497 10.0481 19.9527C3.96249 21.8312 0 24.8349 0 28.0049C0 31.1846 3.98206 34.1981 10.0872 36.0668C8.67835 42.2894 9.30453 47.2401 12.0636 48.8251C12.6996 49.1969 13.4431 49.373 14.265 49.373C16.9556 49.373 20.4778 47.4553 24.0391 44.1288C27.6005 47.4358 31.1227 49.3338 33.8133 49.3338C34.6351 49.3338 35.3787 49.1577 36.0245 48.7859C38.7738 47.2009 39.3901 42.2601 37.9715 36.057C44.0375 34.1883 48 31.1749 48 28.0049ZM35.2613 21.479C34.8993 22.7411 34.4492 24.0424 33.9405 25.3436C33.5393 24.5609 33.1186 23.7782 32.6588 22.9955C32.2087 22.2128 31.7293 21.4496 31.2499 20.706C32.6392 20.9115 33.9796 21.1659 35.2613 21.479ZM30.7803 31.8989C30.0171 33.2197 29.2344 34.472 28.4223 35.6363C26.9645 35.7635 25.4872 35.832 24 35.832C22.5226 35.832 21.0453 35.7635 19.5972 35.6461C18.7852 34.4818 17.9927 33.2393 17.2295 31.9282C16.4859 30.6465 15.8108 29.3453 15.1945 28.0342C15.8011 26.7232 16.4859 25.4121 17.2197 24.1304C17.9829 22.8096 18.7656 21.5572 19.5777 20.393C21.0355 20.2658 22.5128 20.1973 24 20.1973C25.4774 20.1973 26.9548 20.2658 28.4028 20.3832C29.2148 21.5475 30.0073 22.79 30.7705 24.1011C31.5141 25.3828 32.1892 26.684 32.8055 27.9951C32.1892 29.3061 31.5141 30.6172 30.7803 31.8989ZM33.9405 30.627C34.4688 31.938 34.9189 33.249 35.2907 34.521C34.009 34.834 32.6588 35.0982 31.2597 35.3037C31.7391 34.5503 32.2185 33.7774 32.6686 32.9849C33.1186 32.2022 33.5393 31.4097 33.9405 30.627ZM24.0196 41.0664C23.1097 40.1272 22.1998 39.0803 21.2996 37.9356C22.1802 37.9747 23.0803 38.004 23.9902 38.004C24.9099 38.004 25.8198 37.9845 26.7102 37.9356C25.8296 39.0803 24.9197 40.1272 24.0196 41.0664ZM16.7403 35.3037C15.351 35.0982 14.0106 34.8438 12.7289 34.5307C13.0909 33.2686 13.541 31.9674 14.0497 30.6661C14.4509 31.4488 14.8716 32.2315 15.3314 33.0142C15.7913 33.7969 16.2609 34.5601 16.7403 35.3037ZM23.9707 14.9433C24.8806 15.8826 25.7905 16.9294 26.6906 18.0742C25.81 18.035 24.9099 18.0057 24 18.0057C23.0803 18.0057 22.1704 18.0252 21.2801 18.0742C22.1606 16.9294 23.0705 15.8826 23.9707 14.9433ZM16.7305 20.706C16.2511 21.4594 15.7717 22.2323 15.3216 23.0248C14.8716 23.8075 14.4509 24.5903 14.0497 25.373C13.5214 24.0619 13.0713 22.7509 12.6996 21.479C13.9812 21.1757 15.3314 20.9115 16.7305 20.706ZM7.87607 32.9555C4.41256 31.4782 2.17203 29.5409 2.17203 28.0049C2.17203 26.4688 4.41256 24.5218 7.87607 23.0542C8.71749 22.6922 9.63718 22.3693 10.5862 22.066C11.1439 23.9837 11.8777 25.9796 12.7876 28.0244C11.8875 30.0595 11.1635 32.0456 10.6156 33.9535C9.64697 33.6502 8.72727 33.3175 7.87607 32.9555ZM13.1398 46.9368C11.8092 46.1736 11.232 43.2678 11.682 39.5303C11.7896 38.6106 11.9658 37.642 12.181 36.6539C14.0987 37.1235 16.1924 37.4855 18.3938 37.7203C19.7146 39.5303 21.0844 41.174 22.4639 42.6123C19.2744 45.5768 16.2805 47.2009 14.2454 47.2009C13.8051 47.1912 13.4333 47.1031 13.1398 46.9368ZM36.3473 39.4814C36.8072 43.2189 36.2397 46.1247 34.9189 46.8976C34.6254 47.0738 34.2438 47.152 33.7937 47.152C31.7684 47.152 28.7648 45.5377 25.5752 42.5927C26.945 41.1545 28.3147 39.5206 29.616 37.7105C31.8272 37.4757 33.9209 37.1137 35.8386 36.6343C36.0636 37.6225 36.2397 38.5715 36.3473 39.4814ZM40.1141 32.9555C39.2727 33.3175 38.353 33.6404 37.404 33.9437C36.8463 32.0261 36.1125 30.0301 35.2026 27.9853C36.1027 25.9502 36.8267 23.9641 37.3746 22.0562C38.3433 22.3595 39.2629 22.6922 40.1239 23.0542C43.5874 24.5316 45.828 26.4688 45.828 28.0049C45.8182 29.5409 43.5777 31.4879 40.1141 32.9555Z" fill="#61DAFB"/>
<path d="M23.9903 32.4762C26.4597 32.4762 28.4616 30.4744 28.4616 28.005C28.4616 25.5355 26.4597 23.5337 23.9903 23.5337C21.5209 23.5337 19.519 25.5355 19.519 28.005C19.519 30.4744 21.5209 32.4762 23.9903 32.4762Z" fill="#61DAFB"/>
</svg>
