<svg width="33" height="30" viewBox="0 0 33 30" fill="none" xmlns="http://www.w3.org/2000/svg">
<path d="M7.48758 1.09455L16.4876 0.143066L25.4876 1.09455L32.4553 10.4481L16.4876 29.0424L0.519836 10.4481L7.48758 1.09455Z" fill="#FDB300"/>
<path d="M6.98757 10.4478L16.4876 29.042L0.519836 10.4478H6.98757Z" fill="#EA6C00"/>
<path d="M25.9877 10.4478L16.4877 29.042L32.4554 10.4478H25.9877Z" fill="#EA6C00"/>
<path d="M6.98773 10.4478H25.9878L16.4878 29.042L6.98773 10.4478Z" fill="#FDAD00"/>
<path d="M16.4878 0.143066L7.48771 1.09454L6.98773 10.4481L16.4878 0.143066Z" fill="#FDD231"/>
<path d="M16.4878 0.143066L25.4878 1.09454L25.9878 10.4481L16.4878 0.143066Z" fill="#FDD231"/>
<path d="M32.4554 10.4478L25.4876 1.09424L25.9877 10.4478H32.4554Z" fill="#FDAD00"/>
<path d="M0.519836 10.4478L7.48755 1.09424L6.98757 10.4478H0.519836Z" fill="#FDAD00"/>
<path d="M16.4878 0.143066L6.98773 10.4481H25.9878L16.4878 0.143066Z" fill="#FEEEB7"/>
</svg>
