<svg width="42" height="43" viewBox="0 0 42 43" fill="none" xmlns="http://www.w3.org/2000/svg">
<path d="M21.1801 0.799561C9.70008 0.799561 0.400085 10.1196 0.400085 21.5996C0.400085 33.0796 9.70008 42.3996 21.1801 42.3996C32.6801 42.3996 42.0001 33.0796 42.0001 21.5996C42.0001 10.1196 32.6801 0.799561 21.1801 0.799561ZM21.2001 38.2396C12.0101 38.2396 4.56008 30.7896 4.56008 21.5996C4.56008 12.4096 12.0101 4.95956 21.2001 4.95956C30.3901 4.95956 37.8401 12.4096 37.8401 21.5996C37.8401 30.7896 30.3901 38.2396 21.2001 38.2396Z" fill="#FC3A79"/>
<path d="M22.24 11.1997H19.12V23.6797L30.04 30.2297L31.6 27.6697L22.24 22.1197V11.1997Z" fill="#FC3A79"/>
</svg>
