<svg width="39" height="39" viewBox="0 0 39 39" fill="none" xmlns="http://www.w3.org/2000/svg">
<g clip-path="url(#clip0_159_387)">
<path d="M7.19978 0.879883H31.9998C35.7598 0.879883 38.7998 3.91988 38.7998 7.67988V31.5199C38.7998 35.2799 35.7598 38.3199 31.9998 38.3199H7.19978C3.43978 38.3199 0.39978 35.2799 0.39978 31.5199V7.67988C0.39978 3.91988 3.43978 0.879883 7.19978 0.879883Z" fill="#470137"/>
<path d="M20.5921 10.7195L15.7921 18.6395L20.9121 27.0395C20.9441 27.1035 20.96 27.1675 20.944 27.2315C20.9281 27.2955 20.8641 27.2475 20.7681 27.2635H17.1041C16.8481 27.2635 16.6721 27.2475 16.5601 27.0875C16.2241 26.4155 15.8721 25.7595 15.5361 25.0875C15.2001 24.4315 14.8321 23.7595 14.4481 23.0715C14.0641 22.3835 13.6801 21.6955 13.2961 20.9915H13.2641C12.9281 21.6795 12.5601 22.3675 12.1921 23.0555C11.8241 23.7435 11.4561 24.4315 11.1041 25.1035C10.7361 25.7755 10.3681 26.4635 10.0001 27.1195C9.93605 27.2795 9.80805 27.2955 9.63205 27.2955H6.11205C6.04805 27.2955 6.00005 27.3275 6.00005 27.2475C5.98405 27.1835 6.00005 27.1195 6.03205 27.0715L11.0081 18.9115L6.16005 10.7035C6.11205 10.6395 6.09605 10.5755 6.12805 10.5435C6.16005 10.4955 6.22405 10.4795 6.28805 10.4795H9.92005C10.0001 10.4795 10.0801 10.4955 10.1441 10.5115C10.2081 10.5435 10.2561 10.5915 10.3041 10.6555C10.6081 11.3435 10.9601 12.0315 11.3281 12.7195C11.7121 13.4075 12.0801 14.0795 12.4801 14.7515C12.8641 15.4235 13.2161 16.0955 13.5521 16.7835H13.5841C13.9201 16.0795 14.2721 15.3915 14.6241 14.7195C14.9761 14.0475 15.3441 13.3755 15.7121 12.7035C16.0801 12.0315 16.4321 11.3435 16.7841 10.6875C16.8001 10.6235 16.8321 10.5595 16.8801 10.5275C16.9441 10.4955 17.0081 10.4795 17.0881 10.4955H20.4641C20.5441 10.4795 20.6241 10.5275 20.6401 10.6075C20.6561 10.6235 20.6241 10.6875 20.5921 10.7195Z" fill="#FF61F6"/>
<path d="M27.984 27.5999C26.8 27.6159 25.616 27.3759 24.544 26.8799C23.536 26.4159 22.704 25.6479 22.128 24.7039C21.536 23.7279 21.248 22.5119 21.248 21.0559C21.232 19.8719 21.536 18.7039 22.128 17.6799C22.736 16.6399 23.616 15.7759 24.672 15.1999C25.792 14.5759 27.136 14.2719 28.72 14.2719C28.8 14.2719 28.912 14.2719 29.056 14.2879C29.2 14.3039 29.36 14.3039 29.552 14.3199V9.26394C29.552 9.15194 29.6 9.08794 29.712 9.08794H32.96C33.04 9.07194 33.104 9.13594 33.12 9.19994C33.12 9.21594 33.12 9.23194 33.12 9.23194V24.4639C33.12 24.7519 33.136 25.0719 33.152 25.4239C33.184 25.7599 33.2 26.0799 33.216 26.3519C33.216 26.4639 33.168 26.5599 33.056 26.6079C32.224 26.9599 31.344 27.2159 30.448 27.3759C29.632 27.5199 28.816 27.5999 27.984 27.5999ZM29.552 24.3999V17.3599C29.408 17.3279 29.264 17.2959 29.12 17.2799C28.944 17.2639 28.768 17.2479 28.592 17.2479C27.968 17.2479 27.344 17.3759 26.784 17.6639C26.24 17.9359 25.776 18.3359 25.424 18.8479C25.072 19.3599 24.896 20.0479 24.896 20.8799C24.88 21.4399 24.976 21.9999 25.168 22.5279C25.328 22.9599 25.568 23.3439 25.888 23.6639C26.192 23.9519 26.56 24.1759 26.976 24.3039C27.408 24.4479 27.856 24.5119 28.304 24.5119C28.544 24.5119 28.768 24.4959 28.976 24.4799C29.184 24.4959 29.36 24.4639 29.552 24.3999Z" fill="#FF61F6"/>
</g>
<defs>
<clipPath id="clip0_159_387">
<rect width="38.4" height="37.44" fill="white" transform="translate(0.39978 0.879883)"/>
</clipPath>
</defs>
</svg>
