<svg width="33" height="32" viewBox="0 0 33 32" fill="none" xmlns="http://www.w3.org/2000/svg">
<path d="M19.9597 6.49988H12.3018C9.39855 6.49988 7.04504 8.85339 7.04504 11.7566V20.1983C7.04504 23.1015 9.39855 25.455 12.3018 25.455H19.9597C22.8629 25.455 25.2164 23.1015 25.2164 20.1983V11.7566C25.2164 8.85339 22.8629 6.49988 19.9597 6.49988Z" stroke="#261F22" stroke-width="1.63804" stroke-linecap="round"/>
<path d="M16.1307 20.6075C18.6893 20.6075 20.7634 18.5334 20.7634 15.9749C20.7634 13.4163 18.6893 11.3422 16.1307 11.3422C13.5722 11.3422 11.498 13.4163 11.498 15.9749C11.498 18.5334 13.5722 20.6075 16.1307 20.6075Z" stroke="#261F22" stroke-width="1.63804" stroke-linecap="round"/>
<path d="M21.6766 10.513C22.0404 10.513 22.3353 10.218 22.3353 9.85426C22.3353 9.49047 22.0404 9.19556 21.6766 9.19556C21.3129 9.19556 21.0179 9.49047 21.0179 9.85426C21.0179 10.218 21.3129 10.513 21.6766 10.513Z" stroke="#261F22" stroke-width="1.63804"/>
</svg>
