<svg width="30" height="30" viewBox="0 0 30 30" fill="none" xmlns="http://www.w3.org/2000/svg">
<path d="M24.8534 6.06233C24.8534 6.01709 24.8127 5.98994 24.7765 6.02161C24.0662 6.63689 22.3516 7.13454 22.1344 7.15716C22.128 7.16003 22.1211 7.16152 22.1141 7.16152C22.107 7.16152 22.1001 7.16003 22.0937 7.15716C20.836 5.14846 17.936 5.69135 17.936 5.69135C13.6743 6.59617 14.1448 10.9031 14.2263 11.3555C14.2263 11.3782 14.2263 11.3963 14.1856 11.3963C9.44428 11.6315 5.30472 7.22502 4.83421 6.70475C4.82954 6.69907 4.82367 6.69449 4.81702 6.69135C4.81037 6.6882 4.80311 6.68657 4.79575 6.68657C4.7884 6.68657 4.78113 6.6882 4.77449 6.69135C4.76784 6.69449 4.76197 6.69907 4.7573 6.70475C4.22523 7.69113 4.05651 8.83304 4.2806 9.93114C4.50468 11.0292 5.10733 12.0137 5.98333 12.7128C5.99084 12.7172 5.99707 12.7234 6.0014 12.731C6.00573 12.7385 6.00801 12.7471 6.00801 12.7558C6.00801 12.7644 6.00573 12.773 6.0014 12.7805C5.99707 12.7881 5.99084 12.7944 5.98333 12.7987C5.36545 12.7794 4.75458 12.6618 4.17369 12.4504C4.14654 12.4504 4.11487 12.4504 4.11487 12.4956C4.17821 15.3006 6.92887 16.5673 7.56677 16.8342C7.57582 16.8372 7.5837 16.843 7.58929 16.8507C7.59488 16.8584 7.59789 16.8677 7.59789 16.8772C7.59789 16.8868 7.59488 16.896 7.58929 16.9038C7.5837 16.9115 7.57582 16.9172 7.56677 16.9202C6.99511 17.0448 6.40844 17.0859 5.82499 17.0424C5.81714 17.0421 5.80933 17.0436 5.80219 17.0469C5.79506 17.0502 5.78881 17.0552 5.78396 17.0613C5.77911 17.0675 5.77578 17.0748 5.77426 17.0825C5.77275 17.0902 5.77307 17.0981 5.77522 17.1057C6.34979 19.2682 9.16831 20.173 9.67501 20.3223C9.6835 20.3241 9.69136 20.3281 9.69784 20.3339C9.70431 20.3397 9.70915 20.3471 9.7119 20.3553C9.71464 20.3635 9.71518 20.3723 9.71348 20.3808C9.71177 20.3893 9.70786 20.3972 9.70215 20.4038C7.96037 21.9601 4.52657 22.3718 3.82081 22.4441C3.81143 22.4454 3.8026 22.4493 3.79535 22.4554C3.78811 22.4615 3.78275 22.4695 3.7799 22.4785C3.77705 22.4875 3.77683 22.4972 3.77927 22.5063C3.78171 22.5154 3.7867 22.5237 3.79366 22.5301C6.4267 24.3398 13.3214 25.8418 18.5875 21.3403C20.1443 19.9834 21.3745 18.2924 22.1861 16.3935C22.9977 14.4945 23.3698 12.4367 23.2745 10.3738C23.2745 10.3663 23.2767 10.3589 23.2807 10.3525C23.2847 10.3461 23.2904 10.341 23.2971 10.3376C24.2428 9.78216 25.0309 8.99414 25.5863 8.04841C25.5863 8.00317 25.5863 7.97603 25.5185 7.9896C25.0605 8.15052 24.566 8.1772 24.0934 8.06651C24.0934 8.06651 24.867 6.72737 24.8534 6.06233Z" stroke="#261F22" stroke-width="1.31482" stroke-linecap="round"/>
</svg>
