<svg width="25" height="32" viewBox="0 0 25 32" fill="none" xmlns="http://www.w3.org/2000/svg">
<path d="M12.5878 21.2961H24.5062L16.546 14.2192L12.5878 21.2961Z" fill="#FF7FAC"/>
<path d="M12.5225 10.6536L8.5206 14.2084L12.5007 21.2962H12.5879L16.5462 14.2193L12.5225 10.6536Z" fill="#FF4C80"/>
<path d="M8.52077 14.208L0.549713 21.2958H12.5008L8.52077 14.208Z" fill="#FF745B"/>
<path d="M12.5442 21.3715L12.5873 21.296H12.5011L12.5442 21.3715Z" fill="#FF9D51"/>
<path d="M12.5227 31.9497L16.4701 28.4385L8.61896 28.4712L12.5227 31.9497Z" fill="#FF745B"/>
<path d="M8.58633 28.4495L8.61905 28.4713L16.4702 28.4386L16.5029 28.4167L12.5446 21.3726L8.58633 28.4495Z" fill="#FFB955"/>
<path d="M12.5881 21.296L12.5445 21.3724L16.5028 28.4165L24.5066 21.296H12.5881Z" fill="#FF9B92"/>
<path d="M12.5008 21.296H0.549713L8.58619 28.4493L12.5445 21.3724L12.5008 21.296Z" fill="#FF9D51"/>
<path d="M0.549713 0V21.2961L8.52077 14.2083L0.549713 0Z" fill="#FF9D51"/>
<path d="M12.5227 10.6535L0.549713 0L8.52077 14.2083L12.5227 10.6535Z" fill="#FFB955"/>
<path d="M24.5064 0L12.5225 10.6535L16.5462 14.2192L24.5064 0Z" fill="#E3398B"/>
<path d="M24.5066 21.2961V0L16.5464 14.2192L24.5066 21.2961Z" fill="#F766B7"/>
</svg>
