<svg width="116" height="110" viewBox="0 0 116 110" fill="none" xmlns="http://www.w3.org/2000/svg">
<path fill-rule="evenodd" clip-rule="evenodd" d="M34.4579 28.8303L34.6165 22.9895L53.9717 28.5788C57.4608 29.3378 60.968 29.3378 64.457 28.5788L82.9445 22.9306V29.442C82.9445 32.9719 83.0465 35.6 82.5594 39.1026C82.3441 40.6659 81.9816 42.1816 81.3382 43.2102C81.5127 43.2895 81.678 43.3892 81.8321 43.507C83.8281 45.0159 83.6945 48.9445 83.2436 51.149C82.9808 52.4291 82.5277 53.6706 81.8774 54.6652C81.1343 55.798 80.1352 56.6227 78.8664 56.8719C78.5673 58.0659 78.1867 59.2531 77.7359 60.4176C76.4444 63.7413 74.5504 66.8837 72.167 69.5368C72.9939 70.7806 73.8707 72.0403 74.7611 73.2434C80.9009 78.5381 98.4505 79.6347 105.012 83.2937C107.103 84.4605 108.992 85.9444 110.513 87.9518C114.303 92.9566 114.627 97.1752 116 103.31C115.665 106.886 113.637 108.941 109.649 109.246H6.35055C2.36305 108.941 0.335313 106.886 0 103.31C1.37297 97.1752 1.69695 92.9566 5.48734 87.9518C7.00758 85.9444 8.89711 84.4605 10.9883 83.2937C17.2188 79.8182 33.3523 78.6559 40.2239 74.0159C41.2978 72.6294 42.408 70.9981 43.4003 69.5391L43.5068 69.385C41.7373 67.4615 40.3508 65.4745 38.9166 63.3086C38.2709 62.3434 37.4825 61.163 37.0248 59.9215C36.6034 58.7796 36.4177 57.6536 36.3066 56.9784L36.3021 56.8221C35.133 56.5253 34.2064 55.7323 33.5086 54.6652C32.8629 53.6797 32.4098 52.454 32.147 51.1852C31.6734 48.9083 31.5534 44.8166 33.6966 43.4073C34.2676 43.0312 34.945 42.8885 35.7266 43.0335C35.9623 43.0834 35.1557 41.3592 35.0266 40.8789C33.8416 36.4926 34.3401 33.2347 34.4579 28.8303ZM76.1998 40.3193C70.4088 42.3017 62.4905 43.072 59.16 43.2306C55.8477 43.3892 45.1652 42.125 39.1636 39.9591V52.3294L39.15 54.058C39.1115 57.8303 39.0979 59.0447 41.7351 62.9778L42.6323 64.2624C45.1041 67.6427 47.739 70.0375 50.4034 71.5668C53.2943 73.2252 56.2328 73.8687 59.049 73.6512C61.8697 73.4337 64.5839 72.353 67.0217 70.5699C70.6762 67.8987 74.7339 62.2528 75.7784 57.7827C76.1522 56.1719 76.1998 54.4749 76.1998 51.9012V40.3193ZM70.0984 71.5962C67.0172 74.3309 63.2268 76.2974 59.0671 76.6123C53.8562 77.0043 49.266 74.7591 45.5073 71.3697C44.2794 72.9126 43.0016 74.6934 41.8574 76.1252C47.7073 89.8141 70.871 90.2038 74.1539 76.9884C72.7469 75.3368 71.3762 73.4382 70.0984 71.5962ZM79.0386 47.3133V53.9651C80.1238 53.3897 80.7084 51.5568 80.8103 49.6219C80.8602 49.1688 80.9485 45.4849 80.1352 45.6322C79.5166 45.7455 79.1632 46.7967 79.0386 47.3133ZM36.3452 53.9651V47.3133C36.2183 46.7944 35.8694 45.7455 35.2486 45.6322C34.4352 45.4849 34.5236 49.1688 34.5734 49.6219C34.7683 51.4005 35.3573 53.2288 36.3452 53.9651ZM26.4557 14.5093V28.8983H26.0003C25.6899 28.8983 25.4362 29.1543 25.4362 29.4624V33.3298C25.4374 33.4791 25.4972 33.6219 25.6027 33.7274C25.7083 33.833 25.8511 33.8928 26.0003 33.894H26.4557V35.2488C25.878 35.3576 25.4362 35.8696 25.4362 36.4745V36.4768C25.4362 37.161 26.0003 37.7251 26.6845 37.7251H28.9207C29.6049 37.7251 30.1691 37.1633 30.1691 36.4768V36.4745C30.1691 35.8673 29.7273 35.3576 29.1495 35.2488V33.894H29.6049C29.913 33.894 30.1691 33.6402 30.1691 33.3298V29.4624C30.1691 29.152 29.9153 28.8983 29.6049 28.8983H29.1495V15.3453L52.703 22.6723C56.9691 23.6851 61.233 23.753 65.4992 22.6723L91.495 14.9126L93.8445 14.2102C96.7739 13.014 96.0421 10.2023 93.3166 9.55663L63.9133 0.777335C60.8819 -0.0858684 57.8505 -0.224072 54.8168 0.777335L25.9437 9.45015C22.8058 10.2137 22.1827 13.1205 25.8372 14.3167L26.4557 14.5093Z" fill="#FE572E"/>
</svg>
