<svg width="123" height="117" viewBox="0 0 123 117" fill="none" xmlns="http://www.w3.org/2000/svg">
<g clip-path="url(#clip0_308_4)">
<path d="M36 69.5365C36 70.3365 35.35 70.9765 34.56 70.9765C33.76 70.9765 33.12 70.3265 33.12 69.5365V34.2665H2.88V105.346H7.87C8.67 105.346 9.31 105.996 9.31 106.786C9.31 107.586 8.66 108.226 7.87 108.226H1.44C0.64 108.226 0 107.576 0 106.786V33.4965C0 32.9165 0.24 32.3865 0.62 31.9965C1 31.6165 1.53 31.3765 2.12 31.3765H33.12V3.28647C33.12 2.59647 33.4 1.95647 33.86 1.50647V1.49647C34.32 1.03647 34.95 0.75647 35.65 0.75647H87C87.7 0.75647 88.33 1.03647 88.79 1.49647L88.9 1.61647C89.29 2.06647 89.54 2.64647 89.54 3.28647V31.3765H120.76C121.34 31.3765 121.87 31.6165 122.25 31.9965L122.26 32.0065C122.64 32.3865 122.88 32.9165 122.88 33.4965V106.786C122.88 107.586 122.23 108.226 121.44 108.226H112.3C111.5 108.226 110.86 107.576 110.86 106.786C110.86 105.986 111.51 105.346 112.3 105.346H120V34.2665H89.53V69.1165C89.53 69.9165 88.88 70.5565 88.09 70.5565C87.29 70.5565 86.65 69.9065 86.65 69.1165V3.63647H36V69.5365ZM97.15 69.2965H113.05C113.18 69.2965 113.29 69.3765 113.29 69.4665V74.1665C113.29 74.2665 113.18 74.3465 113.05 74.3465H97.15C97.02 74.3465 96.91 74.2665 96.91 74.1665V69.4665C96.91 69.3765 97.02 69.2965 97.15 69.2965ZM9.71 69.2965H25.61C25.74 69.2965 25.85 69.3765 25.85 69.4665V74.1665C25.85 74.2665 25.74 74.3465 25.61 74.3465H9.71C9.58 74.3465 9.47 74.2665 9.47 74.1665V69.4665C9.47 69.3765 9.58 69.2965 9.71 69.2965ZM42.46 9.22647H80.2C80.83 9.22647 81.35 9.74647 81.35 10.3765V22.6865C81.35 23.3165 80.83 23.8365 80.2 23.8365H42.46C41.83 23.8365 41.31 23.3165 41.31 22.6865V10.3765C41.3 9.74647 41.82 9.22647 42.46 9.22647ZM97.4 105.776C96.35 103.666 95.02 101.876 93.46 100.196C96.38 101.326 99.37 102.446 101.58 103.836C105.6 106.356 105.9 109.406 106.23 113.786H86.3C86.3 113.756 86.3 113.716 86.3 113.686L85.93 110.556L87.36 111.796L94.36 105.706L97.4 105.776ZM26.08 100.836L28.61 108.276L29.88 103.856L29.26 103.176C28.98 102.766 28.92 102.406 29.07 102.096C29.41 101.426 30.11 101.556 30.76 101.556C31.44 101.556 32.29 101.426 32.5 102.286C32.57 102.576 32.48 102.876 32.28 103.186L31.66 103.866L32.93 108.286L35.22 100.846C35.55 101.146 36.02 101.396 36.56 101.616C36.37 102.016 36.2 102.426 36.05 102.866C35.66 103.996 35.41 105.246 35.3 106.636H35.31C35.31 106.666 35.31 106.706 35.3 106.736L34.75 113.796H16.44C15.34 113.716 14.78 113.146 14.69 112.166L15.07 108.266C15.18 106.876 15.57 105.786 16.2 104.946C16.62 104.396 17.14 103.986 17.71 103.666C19.53 102.616 24.43 102.326 26.08 100.836ZM24.84 90.2865C24.59 90.3065 24.41 90.3665 24.27 90.4465C24.19 90.4965 24.14 90.5665 24.1 90.6465C24.06 90.7365 24.04 90.8565 24.04 90.9865C24.05 91.3965 24.27 91.9465 24.7 92.5765L24.71 92.5865L26.12 94.8365C26.68 95.7365 27.28 96.6465 28 97.3165C28.69 97.9465 29.54 98.3765 30.65 98.3865C31.86 98.3865 32.74 97.9465 33.46 97.2765C34.21 96.5765 34.81 95.5965 35.4 94.6265L36.99 92.0065C37.31 91.2765 37.41 90.8365 37.31 90.6265C37.25 90.4965 36.98 90.4665 36.55 90.4965C36.27 90.5565 35.99 90.5065 35.68 90.3465L36.47 87.9665C33.56 87.9265 31.56 87.4265 29.21 85.9165C28.44 85.4265 28.2 84.8565 27.43 84.9065C26.84 85.0165 26.35 85.2865 25.96 85.7065C25.58 86.1065 25.3 86.6565 25.12 87.3665L25.59 90.2265C25.34 90.3765 25.09 90.3865 24.84 90.2865ZM37.45 89.5765C37.79 89.6765 38.04 89.8765 38.2 90.1765C38.44 90.6665 38.35 91.3865 37.9 92.4065C37.89 92.4265 37.88 92.4465 37.87 92.4665L36.26 95.1165C35.64 96.1465 35 97.1765 34.15 97.9765C33.26 98.8065 32.17 99.3565 30.67 99.3565C29.27 99.3565 28.22 98.8165 27.36 98.0265C26.53 97.2665 25.9 96.2965 25.31 95.3465L23.9 93.0965C23.37 92.3065 23.1 91.5865 23.08 90.9965C23.07 90.7065 23.12 90.4465 23.23 90.2165C23.34 89.9765 23.52 89.7665 23.75 89.6165C23.86 89.5365 23.99 89.4765 24.14 89.4265C24.05 88.2265 24.02 86.7365 24.08 85.4765C24.11 85.1665 24.17 84.8665 24.25 84.5565C24.61 83.2665 25.52 82.2265 26.64 81.5165C27.04 81.2665 27.47 81.0565 27.93 80.8865C30.65 79.9065 34.25 80.4365 36.18 82.5265C36.97 83.3765 37.46 84.5065 37.56 85.9965L37.45 89.5765ZM51.68 79.6165C51.36 79.6565 51.12 79.7365 50.94 79.8465C50.82 79.9265 50.74 80.0265 50.69 80.1365C50.63 80.2765 50.6 80.4465 50.6 80.6365C50.62 81.2465 50.95 82.0665 51.58 83.0065L51.59 83.0265L53.7 86.3865C54.54 87.7265 55.42 89.0865 56.51 90.0865C57.55 91.0365 58.8 91.6765 60.46 91.6765C62.26 91.6765 63.58 91.0165 64.64 90.0165C65.76 88.9665 66.66 87.5165 67.53 86.0665L69.9 82.1665C70.38 81.0765 70.52 80.4165 70.37 80.1165C70.27 79.9165 69.86 79.8665 69.16 79.9365C69.11 79.9365 69.05 79.9365 69 79.9365C68.71 79.9365 68.4 79.8665 68.05 79.7065L69.12 76.1465C64.77 76.0965 61.8 75.3365 58.28 73.0865C57.12 72.3465 56.78 71.5065 55.62 71.5865C54.75 71.7565 54.01 72.1465 53.43 72.7765C52.87 73.3765 52.45 74.1965 52.17 75.2565L52.92 79.5665C52.49 79.7665 52.07 79.7865 51.68 79.6165ZM53.64 95.3465L57.42 106.456L59.32 99.8665L58.39 98.8465C57.97 98.2365 57.88 97.6965 58.11 97.2365C58.61 96.2365 59.66 96.4265 60.63 96.4265C61.65 96.4265 62.91 96.2365 63.23 97.5065C63.34 97.9365 63.2 98.3765 62.9 98.8465L61.97 99.8665L63.87 106.456L67.29 95.3465C69.76 97.5665 76.11 98.0165 78.83 99.5265C79.57 99.9365 80.24 100.446 80.81 101.096C80.82 101.026 80.84 100.946 80.88 100.886C81.18 100.296 81.8 100.406 82.38 100.406C82.99 100.406 83.74 100.296 83.93 101.056C83.99 101.306 83.91 101.576 83.74 101.856L83.19 102.466L84.32 106.386L82.87 107.536L83.35 113.826C83.21 115.296 82.38 116.136 80.74 116.266H40.2C38.56 116.136 37.73 115.296 37.59 113.826L38.16 106.416C38.32 104.346 38.9 102.706 39.85 101.456C40.47 100.636 41.25 100.026 42.11 99.5465C44.82 98.0165 51.17 97.5665 53.64 95.3465ZM70.6 78.5465C71.11 78.6965 71.49 78.9865 71.72 79.4465C72.08 80.1765 71.94 81.2465 71.27 82.7765C71.26 82.8065 71.24 82.8365 71.23 82.8665L68.82 86.8265C67.89 88.3665 66.94 89.8965 65.67 91.0865C64.34 92.3265 62.71 93.1565 60.48 93.1465C58.39 93.1465 56.82 92.3465 55.53 91.1665C54.29 90.0365 53.36 88.5865 52.46 87.1665L50.35 83.8065C49.56 82.6365 49.16 81.5565 49.13 80.6665C49.12 80.2365 49.19 79.8465 49.35 79.5065C49.52 79.1465 49.78 78.8365 50.13 78.6065C50.3 78.4865 50.5 78.3965 50.71 78.3165C50.58 76.5165 50.54 74.2965 50.62 72.4265C50.67 71.9665 50.75 71.5165 50.88 71.0565C51.42 69.1265 52.77 67.5765 54.45 66.5165C55.04 66.1365 55.69 65.8265 56.37 65.5865C60.42 64.1165 65.8 64.9165 68.68 68.0365C69.85 69.3065 70.59 70.9865 70.75 73.2065L70.6 78.5465ZM77.93 96.8865L79.79 96.8365L81.34 96.7965C79.54 91.2465 80.14 86.1465 84.48 81.8065C85.22 84.1865 86.87 86.1565 89.68 87.6065C91.02 88.6065 92.32 89.8065 93.58 91.1965C93.8 90.2765 92.95 89.1665 91.92 88.0165C92.87 88.4865 93.75 89.1465 94.37 90.4165C95.09 91.8865 95.08 93.1265 94.84 94.7265C94.73 95.4665 94.55 96.1665 94.29 96.7965H96.86C99.57 90.9965 97.85 82.3865 92.31 78.7365C90.61 77.6165 89.39 77.6565 87.39 77.6565C85.11 77.6565 83.94 77.7265 81.98 79.0265C79.1 80.9365 77.32 84.2365 76.58 88.8165C76.43 91.1065 76.33 95.0565 77.93 96.8865ZM97.15 59.0265H113.05C113.18 59.0265 113.29 59.1065 113.29 59.2065V63.9065C113.29 64.0065 113.18 64.0865 113.05 64.0865H97.15C97.02 64.0865 96.91 64.0065 96.91 63.9065V59.2065C96.91 59.1065 97.02 59.0265 97.15 59.0265ZM97.15 48.7465H113.05C113.18 48.7465 113.29 48.8265 113.29 48.9265V53.6265C113.29 53.7265 113.18 53.8065 113.05 53.8065H97.15C97.02 53.8065 96.91 53.7265 96.91 53.6265V48.9265C96.91 48.8265 97.02 48.7465 97.15 48.7465ZM9.71 59.0265H25.61C25.74 59.0265 25.85 59.1065 25.85 59.2065V63.9065C25.85 64.0065 25.74 64.0865 25.61 64.0865H9.71C9.58 64.0865 9.47 64.0065 9.47 63.9065V59.2065C9.47 59.1065 9.58 59.0265 9.71 59.0265ZM9.71 48.7465H25.61C25.74 48.7465 25.85 48.8265 25.85 48.9265V53.6265C25.85 53.7265 25.74 53.8065 25.61 53.8065H9.71C9.58 53.8065 9.47 53.7265 9.47 53.6265V48.9265C9.47 48.8265 9.58 48.7465 9.71 48.7465ZM71.67 49.8365H80.16C80.29 49.8365 80.4 49.9465 80.4 50.0765V58.5665C80.4 58.6965 80.29 58.8065 80.16 58.8065H71.67C71.54 58.8065 71.43 58.6965 71.43 58.5665V50.0765C71.43 49.9465 71.54 49.8365 71.67 49.8365ZM57.08 49.8365H65.57C65.7 49.8365 65.81 49.9465 65.81 50.0765V58.5665C65.81 58.6965 65.7 58.8065 65.57 58.8065H57.08C56.95 58.8065 56.84 58.6965 56.84 58.5665V50.0765C56.84 49.9465 56.95 49.8365 57.08 49.8365ZM42.49 49.8365H50.98C51.11 49.8365 51.22 49.9465 51.22 50.0765V58.5665C51.22 58.6965 51.11 58.8065 50.98 58.8065H42.49C42.36 58.8065 42.25 58.6965 42.25 58.5665V50.0765C42.25 49.9465 42.36 49.8365 42.49 49.8365ZM71.67 33.3665H80.16C80.29 33.3665 80.4 33.4765 80.4 33.6065V42.0965C80.4 42.2265 80.29 42.3365 80.16 42.3365H71.67C71.54 42.3365 71.43 42.2265 71.43 42.0965V33.6065C71.43 33.4665 71.54 33.3665 71.67 33.3665ZM57.08 33.3665H65.57C65.7 33.3665 65.81 33.4765 65.81 33.6065V42.0965C65.81 42.2265 65.7 42.3365 65.57 42.3365H57.08C56.95 42.3365 56.84 42.2265 56.84 42.0965V33.6065C56.84 33.4665 56.95 33.3665 57.08 33.3665ZM42.49 33.3665H50.98C51.11 33.3665 51.22 33.4765 51.22 33.6065V42.0965C51.22 42.2265 51.11 42.3365 50.98 42.3365H42.49C42.36 42.3365 42.25 42.2265 42.25 42.0965V33.6065C42.25 33.4665 42.36 33.3665 42.49 33.3665Z" fill="#FE572E"/>
</g>
<defs>
<clipPath id="clip0_308_4">
<rect width="122.88" height="115.49" fill="white" transform="translate(0 0.75647)"/>
</clipPath>
</defs>
</svg>
