<svg width="121" height="124" viewBox="0 0 121 124" fill="none" xmlns="http://www.w3.org/2000/svg">
<g clip-path="url(#clip0_308_7)">
<path fill-rule="evenodd" clip-rule="evenodd" d="M31.4 0.416459H116.99V103.466C116.84 105.986 113.58 106.046 110.05 105.886H30.2C22.2 106.616 25.05 117.266 30.2 116.706H113.3V113.036H120.23V119.256C120.23 120.317 119.809 121.335 119.058 122.085C118.308 122.835 117.291 123.256 116.23 123.256H30.55C18.55 123.426 14.6 122.786 14.6 114.006V101.286H5.44C2.88 101.286 0.880005 98.9565 0.880005 96.0965C0.880005 93.2365 2.88 90.9065 5.44 90.9065H14.6V82.6265H5.44C2.88 82.6265 0.880005 80.3065 0.880005 77.4365C0.880005 74.5665 2.88 72.2565 5.44 72.2565H14.6V63.9665H5.44C2.88 63.9665 0.880005 61.6465 0.880005 58.7865C0.880005 55.9265 2.88 53.5965 5.44 53.5965H14.6V45.3665H5.44C2.88 45.3665 0.880005 42.9965 0.880005 40.1265C0.880005 37.2565 2.88 34.9365 5.44 34.9365H14.6V26.6565H5.44C2.88 26.6565 0.880005 24.3665 0.880005 21.4765C0.880005 18.5865 2.88 16.2865 5.44 16.2865H14.6C14.58 3.01646 14.41 -0.103541 31.4 0.416459ZM47.47 42.2765C46.86 42.2765 46.275 42.0341 45.8437 41.6028C45.4123 41.1715 45.17 40.5865 45.17 39.9765C45.17 39.3665 45.4123 38.7814 45.8437 38.3501C46.275 37.9188 46.86 37.6765 47.47 37.6765H81.28C81.89 37.6765 82.475 37.9188 82.9063 38.3501C83.3377 38.7814 83.58 39.3665 83.58 39.9765C83.58 40.5865 83.3377 41.1715 82.9063 41.6028C82.475 42.0341 81.89 42.2765 81.28 42.2765H47.47ZM47.47 30.1565C46.8849 30.1179 46.3364 29.8583 45.9356 29.4303C45.5349 29.0022 45.3119 28.4378 45.3119 27.8515C45.3119 27.2651 45.5349 26.7007 45.9356 26.2727C46.3364 25.8446 46.8849 25.585 47.47 25.5465H87.35C87.6655 25.5257 87.9818 25.5699 88.2795 25.6763C88.5772 25.7827 88.8499 25.9491 89.0807 26.1652C89.3115 26.3813 89.4955 26.6424 89.6212 26.9325C89.747 27.2225 89.8119 27.5353 89.8119 27.8515C89.8119 28.1676 89.747 28.4804 89.6212 28.7704C89.4955 29.0605 89.3115 29.3217 89.0807 29.5377C88.8499 29.7538 88.5772 29.9202 88.2795 30.0266C87.9818 30.1331 87.6655 30.1772 87.35 30.1565H47.47ZM41.57 15.3665H93.26C94.1416 15.3717 94.9855 15.7242 95.6089 16.3476C96.2322 16.971 96.5848 17.8149 96.59 18.6965V49.1765C96.5822 50.0581 96.2292 50.9017 95.6067 51.5261C94.9841 52.1505 94.1417 52.506 93.26 52.5165H41.57C40.6867 52.5112 39.8413 52.1573 39.2176 51.5318C38.594 50.9063 38.2426 50.0597 38.24 49.1765V18.6465C38.2557 17.7728 38.6131 16.9401 39.2357 16.3269C39.8582 15.7137 40.6962 15.3689 41.57 15.3665V15.3665Z" fill="#FC3A79"/>
</g>
<defs>
<clipPath id="clip0_308_7">
<rect width="119.35" height="122.88" fill="white" transform="translate(0.880005 0.366455)"/>
</clipPath>
</defs>
</svg>
