<svg width="629" height="124" viewBox="0 0 629 124" fill="none" xmlns="http://www.w3.org/2000/svg">
<path fill-rule="evenodd" clip-rule="evenodd" d="M34.4579 42.8303L34.6165 36.9895L53.9717 42.5788C57.4608 43.3378 60.968 43.3378 64.457 42.5788L82.9445 36.9306V43.442C82.9445 46.9719 83.0465 49.6 82.5594 53.1026C82.3441 54.6659 81.9816 56.1816 81.3382 57.2102C81.5127 57.2895 81.678 57.3892 81.8321 57.507C83.8281 59.0159 83.6945 62.9445 83.2436 65.149C82.9808 66.4291 82.5277 67.6706 81.8774 68.6652C81.1343 69.798 80.1352 70.6227 78.8664 70.8719C78.5673 72.0659 78.1867 73.2531 77.7359 74.4176C76.4444 77.7413 74.5504 80.8837 72.167 83.5368C72.9939 84.7806 73.8707 86.0403 74.7611 87.2434C80.9009 92.5381 98.4505 93.6347 105.012 97.2937C107.103 98.4605 108.992 99.9444 110.513 101.952C114.303 106.957 114.627 111.175 116 117.31C115.665 120.886 113.637 122.941 109.649 123.246H6.35055C2.36305 122.941 0.335313 120.886 0 117.31C1.37297 111.175 1.69695 106.957 5.48734 101.952C7.00758 99.9444 8.89711 98.4605 10.9883 97.2937C17.2188 93.8182 33.3523 92.6559 40.2239 88.0159C41.2978 86.6294 42.408 84.9981 43.4003 83.5391L43.5068 83.385C41.7373 81.4615 40.3508 79.4745 38.9166 77.3086C38.2709 76.3434 37.4825 75.163 37.0248 73.9215C36.6034 72.7796 36.4177 71.6536 36.3066 70.9784L36.3021 70.8221C35.133 70.5253 34.2064 69.7323 33.5086 68.6652C32.8629 67.6797 32.4098 66.454 32.147 65.1852C31.6734 62.9083 31.5534 58.8166 33.6966 57.4073C34.2676 57.0312 34.945 56.8885 35.7266 57.0335C35.9623 57.0834 35.1557 55.3592 35.0266 54.8789C33.8416 50.4926 34.3401 47.2347 34.4579 42.8303ZM76.1998 54.3193C70.4088 56.3017 62.4905 57.072 59.16 57.2306C55.8477 57.3892 45.1652 56.125 39.1636 53.9591V66.3294L39.15 68.058C39.1115 71.8303 39.0979 73.0447 41.7351 76.9778L42.6323 78.2624C45.1041 81.6427 47.739 84.0375 50.4034 85.5668C53.2943 87.2252 56.2328 87.8687 59.049 87.6512C61.8697 87.4337 64.5839 86.353 67.0217 84.5699C70.6762 81.8987 74.7339 76.2528 75.7784 71.7827C76.1522 70.1719 76.1998 68.4749 76.1998 65.9012V54.3193ZM70.0984 85.5962C67.0172 88.3309 63.2268 90.2974 59.0671 90.6123C53.8562 91.0043 49.266 88.7591 45.5073 85.3697C44.2794 86.9126 43.0016 88.6934 41.8574 90.1252C47.7073 103.814 70.871 104.204 74.1539 90.9884C72.7469 89.3368 71.3762 87.4382 70.0984 85.5962ZM79.0386 61.3133V67.9651C80.1238 67.3897 80.7084 65.5568 80.8103 63.6219C80.8602 63.1688 80.9485 59.4849 80.1352 59.6322C79.5166 59.7455 79.1632 60.7967 79.0386 61.3133ZM36.3452 67.9651V61.3133C36.2183 60.7944 35.8694 59.7455 35.2486 59.6322C34.4352 59.4849 34.5236 63.1688 34.5734 63.6219C34.7683 65.4005 35.3573 67.2288 36.3452 67.9651ZM26.4557 28.5093V42.8983H26.0003C25.6899 42.8983 25.4362 43.1543 25.4362 43.4624V47.3298C25.4374 47.4791 25.4972 47.6219 25.6027 47.7274C25.7083 47.833 25.8511 47.8928 26.0003 47.894H26.4557V49.2488C25.878 49.3576 25.4362 49.8696 25.4362 50.4745V50.4768C25.4362 51.161 26.0003 51.7251 26.6845 51.7251H28.9207C29.6049 51.7251 30.1691 51.1633 30.1691 50.4768V50.4745C30.1691 49.8673 29.7273 49.3576 29.1495 49.2488V47.894H29.6049C29.913 47.894 30.1691 47.6402 30.1691 47.3298V43.4624C30.1691 43.152 29.9153 42.8983 29.6049 42.8983H29.1495V29.3453L52.703 36.6723C56.9691 37.6851 61.233 37.753 65.4992 36.6723L91.495 28.9126L93.8445 28.2102C96.7739 27.014 96.0421 24.2023 93.3166 23.5566L63.9133 14.7773C60.8819 13.9141 57.8505 13.7759 54.8168 14.7773L25.9437 23.4501C22.8058 24.2137 22.1827 27.1205 25.8372 28.3167L26.4557 28.5093Z" fill="#261F22"/>
<g clip-path="url(#clip0_308_11)">
<path d="M201 76.5365C201 77.3365 200.35 77.9765 199.56 77.9765C198.76 77.9765 198.12 77.3265 198.12 76.5365V41.2665H167.88V112.346H172.87C173.67 112.346 174.31 112.996 174.31 113.786C174.31 114.586 173.66 115.226 172.87 115.226H166.44C165.64 115.226 165 114.576 165 113.786V40.4965C165 39.9165 165.24 39.3865 165.62 38.9965C166 38.6165 166.53 38.3765 167.12 38.3765H198.12V10.2865C198.12 9.59647 198.4 8.95647 198.86 8.50647V8.49647C199.32 8.03647 199.95 7.75647 200.65 7.75647H252C252.7 7.75647 253.33 8.03647 253.79 8.49647L253.9 8.61647C254.29 9.06647 254.54 9.64647 254.54 10.2865V38.3765H285.76C286.34 38.3765 286.87 38.6165 287.25 38.9965L287.26 39.0065C287.64 39.3865 287.88 39.9165 287.88 40.4965V113.786C287.88 114.586 287.23 115.226 286.44 115.226H277.3C276.5 115.226 275.86 114.576 275.86 113.786C275.86 112.986 276.51 112.346 277.3 112.346H285V41.2665H254.53V76.1165C254.53 76.9165 253.88 77.5565 253.09 77.5565C252.29 77.5565 251.65 76.9065 251.65 76.1165V10.6365H201V76.5365ZM262.15 76.2965H278.05C278.18 76.2965 278.29 76.3765 278.29 76.4665V81.1665C278.29 81.2665 278.18 81.3465 278.05 81.3465H262.15C262.02 81.3465 261.91 81.2665 261.91 81.1665V76.4665C261.91 76.3765 262.02 76.2965 262.15 76.2965ZM174.71 76.2965H190.61C190.74 76.2965 190.85 76.3765 190.85 76.4665V81.1665C190.85 81.2665 190.74 81.3465 190.61 81.3465H174.71C174.58 81.3465 174.47 81.2665 174.47 81.1665V76.4665C174.47 76.3765 174.58 76.2965 174.71 76.2965ZM207.46 16.2265H245.2C245.83 16.2265 246.35 16.7465 246.35 17.3765V29.6865C246.35 30.3165 245.83 30.8365 245.2 30.8365H207.46C206.83 30.8365 206.31 30.3165 206.31 29.6865V17.3765C206.3 16.7465 206.82 16.2265 207.46 16.2265ZM262.4 112.776C261.35 110.666 260.02 108.876 258.46 107.196C261.38 108.326 264.37 109.446 266.58 110.836C270.6 113.356 270.9 116.406 271.23 120.786H251.3C251.3 120.756 251.3 120.716 251.3 120.686L250.93 117.556L252.36 118.796L259.36 112.706L262.4 112.776ZM191.08 107.836L193.61 115.276L194.88 110.856L194.26 110.176C193.98 109.766 193.92 109.406 194.07 109.096C194.41 108.426 195.11 108.556 195.76 108.556C196.44 108.556 197.29 108.426 197.5 109.286C197.57 109.576 197.48 109.876 197.28 110.186L196.66 110.866L197.93 115.286L200.22 107.846C200.55 108.146 201.02 108.396 201.56 108.616C201.37 109.016 201.2 109.426 201.05 109.866C200.66 110.996 200.41 112.246 200.3 113.636H200.31C200.31 113.666 200.31 113.706 200.3 113.736L199.75 120.796H181.44C180.34 120.716 179.78 120.146 179.69 119.166L180.07 115.266C180.18 113.876 180.57 112.786 181.2 111.946C181.62 111.396 182.14 110.986 182.71 110.666C184.53 109.616 189.43 109.326 191.08 107.836ZM189.84 97.2865C189.59 97.3065 189.41 97.3665 189.27 97.4465C189.19 97.4965 189.14 97.5665 189.1 97.6465C189.06 97.7365 189.04 97.8565 189.04 97.9865C189.05 98.3965 189.27 98.9465 189.7 99.5765L189.71 99.5865L191.12 101.836C191.68 102.736 192.28 103.646 193 104.316C193.69 104.946 194.54 105.376 195.65 105.386C196.86 105.386 197.74 104.946 198.46 104.276C199.21 103.576 199.81 102.596 200.4 101.626L201.99 99.0065C202.31 98.2765 202.41 97.8365 202.31 97.6265C202.25 97.4965 201.98 97.4665 201.55 97.4965C201.27 97.5565 200.99 97.5065 200.68 97.3465L201.47 94.9665C198.56 94.9265 196.56 94.4265 194.21 92.9165C193.44 92.4265 193.2 91.8565 192.43 91.9065C191.84 92.0165 191.35 92.2865 190.96 92.7065C190.58 93.1065 190.3 93.6565 190.12 94.3665L190.59 97.2265C190.34 97.3765 190.09 97.3865 189.84 97.2865ZM202.45 96.5765C202.79 96.6765 203.04 96.8765 203.2 97.1765C203.44 97.6665 203.35 98.3865 202.9 99.4065C202.89 99.4265 202.88 99.4465 202.87 99.4665L201.26 102.116C200.64 103.146 200 104.176 199.15 104.976C198.26 105.806 197.17 106.356 195.67 106.356C194.27 106.356 193.22 105.816 192.36 105.026C191.53 104.266 190.9 103.296 190.31 102.346L188.9 100.096C188.37 99.3065 188.1 98.5865 188.08 97.9965C188.07 97.7065 188.12 97.4465 188.23 97.2165C188.34 96.9765 188.52 96.7665 188.75 96.6165C188.86 96.5365 188.99 96.4765 189.14 96.4265C189.05 95.2265 189.02 93.7365 189.08 92.4765C189.11 92.1665 189.17 91.8665 189.25 91.5565C189.61 90.2665 190.52 89.2265 191.64 88.5165C192.04 88.2665 192.47 88.0565 192.93 87.8865C195.65 86.9065 199.25 87.4365 201.18 89.5265C201.97 90.3765 202.46 91.5065 202.56 92.9965L202.45 96.5765ZM216.68 86.6165C216.36 86.6565 216.12 86.7365 215.94 86.8465C215.82 86.9265 215.74 87.0265 215.69 87.1365C215.63 87.2765 215.6 87.4465 215.6 87.6365C215.62 88.2465 215.95 89.0665 216.58 90.0065L216.59 90.0265L218.7 93.3865C219.54 94.7265 220.42 96.0865 221.51 97.0865C222.55 98.0365 223.8 98.6765 225.46 98.6765C227.26 98.6765 228.58 98.0165 229.64 97.0165C230.76 95.9665 231.66 94.5165 232.53 93.0665L234.9 89.1665C235.38 88.0765 235.52 87.4165 235.37 87.1165C235.27 86.9165 234.86 86.8665 234.16 86.9365C234.11 86.9365 234.05 86.9365 234 86.9365C233.71 86.9365 233.4 86.8665 233.05 86.7065L234.12 83.1465C229.77 83.0965 226.8 82.3365 223.28 80.0865C222.12 79.3465 221.78 78.5065 220.62 78.5865C219.75 78.7565 219.01 79.1465 218.43 79.7765C217.87 80.3765 217.45 81.1965 217.17 82.2565L217.92 86.5665C217.49 86.7665 217.07 86.7865 216.68 86.6165ZM218.64 102.346L222.42 113.456L224.32 106.866L223.39 105.846C222.97 105.236 222.88 104.696 223.11 104.236C223.61 103.236 224.66 103.426 225.63 103.426C226.65 103.426 227.91 103.236 228.23 104.506C228.34 104.936 228.2 105.376 227.9 105.846L226.97 106.866L228.87 113.456L232.29 102.346C234.76 104.566 241.11 105.016 243.83 106.526C244.57 106.936 245.24 107.446 245.81 108.096C245.82 108.026 245.84 107.946 245.88 107.886C246.18 107.296 246.8 107.406 247.38 107.406C247.99 107.406 248.74 107.296 248.93 108.056C248.99 108.306 248.91 108.576 248.74 108.856L248.19 109.466L249.32 113.386L247.87 114.536L248.35 120.826C248.21 122.296 247.38 123.136 245.74 123.266H205.2C203.56 123.136 202.73 122.296 202.59 120.826L203.16 113.416C203.32 111.346 203.9 109.706 204.85 108.456C205.47 107.636 206.25 107.026 207.11 106.546C209.82 105.016 216.17 104.566 218.64 102.346ZM235.6 85.5465C236.11 85.6965 236.49 85.9865 236.72 86.4465C237.08 87.1765 236.94 88.2465 236.27 89.7765C236.26 89.8065 236.24 89.8365 236.23 89.8665L233.82 93.8265C232.89 95.3665 231.94 96.8965 230.67 98.0865C229.34 99.3265 227.71 100.156 225.48 100.146C223.39 100.146 221.82 99.3465 220.53 98.1665C219.29 97.0365 218.36 95.5865 217.46 94.1665L215.35 90.8065C214.56 89.6365 214.16 88.5565 214.13 87.6665C214.12 87.2365 214.19 86.8465 214.35 86.5065C214.52 86.1465 214.78 85.8365 215.13 85.6065C215.3 85.4865 215.5 85.3965 215.71 85.3165C215.58 83.5165 215.54 81.2965 215.62 79.4265C215.67 78.9665 215.75 78.5165 215.88 78.0565C216.42 76.1265 217.77 74.5765 219.45 73.5165C220.04 73.1365 220.69 72.8265 221.37 72.5865C225.42 71.1165 230.8 71.9165 233.68 75.0365C234.85 76.3065 235.59 77.9865 235.75 80.2065L235.6 85.5465ZM242.93 103.886L244.79 103.836L246.34 103.796C244.54 98.2465 245.14 93.1465 249.48 88.8065C250.22 91.1865 251.87 93.1565 254.68 94.6065C256.02 95.6065 257.32 96.8065 258.58 98.1965C258.8 97.2765 257.95 96.1665 256.92 95.0165C257.87 95.4865 258.75 96.1465 259.37 97.4165C260.09 98.8865 260.08 100.126 259.84 101.726C259.73 102.466 259.55 103.166 259.29 103.796H261.86C264.57 97.9965 262.85 89.3865 257.31 85.7365C255.61 84.6165 254.39 84.6565 252.39 84.6565C250.11 84.6565 248.94 84.7265 246.98 86.0265C244.1 87.9365 242.32 91.2365 241.58 95.8165C241.43 98.1065 241.33 102.056 242.93 103.886ZM262.15 66.0265H278.05C278.18 66.0265 278.29 66.1065 278.29 66.2065V70.9065C278.29 71.0065 278.18 71.0865 278.05 71.0865H262.15C262.02 71.0865 261.91 71.0065 261.91 70.9065V66.2065C261.91 66.1065 262.02 66.0265 262.15 66.0265ZM262.15 55.7465H278.05C278.18 55.7465 278.29 55.8265 278.29 55.9265V60.6265C278.29 60.7265 278.18 60.8065 278.05 60.8065H262.15C262.02 60.8065 261.91 60.7265 261.91 60.6265V55.9265C261.91 55.8265 262.02 55.7465 262.15 55.7465ZM174.71 66.0265H190.61C190.74 66.0265 190.85 66.1065 190.85 66.2065V70.9065C190.85 71.0065 190.74 71.0865 190.61 71.0865H174.71C174.58 71.0865 174.47 71.0065 174.47 70.9065V66.2065C174.47 66.1065 174.58 66.0265 174.71 66.0265ZM174.71 55.7465H190.61C190.74 55.7465 190.85 55.8265 190.85 55.9265V60.6265C190.85 60.7265 190.74 60.8065 190.61 60.8065H174.71C174.58 60.8065 174.47 60.7265 174.47 60.6265V55.9265C174.47 55.8265 174.58 55.7465 174.71 55.7465ZM236.67 56.8365H245.16C245.29 56.8365 245.4 56.9465 245.4 57.0765V65.5665C245.4 65.6965 245.29 65.8065 245.16 65.8065H236.67C236.54 65.8065 236.43 65.6965 236.43 65.5665V57.0765C236.43 56.9465 236.54 56.8365 236.67 56.8365ZM222.08 56.8365H230.57C230.7 56.8365 230.81 56.9465 230.81 57.0765V65.5665C230.81 65.6965 230.7 65.8065 230.57 65.8065H222.08C221.95 65.8065 221.84 65.6965 221.84 65.5665V57.0765C221.84 56.9465 221.95 56.8365 222.08 56.8365ZM207.49 56.8365H215.98C216.11 56.8365 216.22 56.9465 216.22 57.0765V65.5665C216.22 65.6965 216.11 65.8065 215.98 65.8065H207.49C207.36 65.8065 207.25 65.6965 207.25 65.5665V57.0765C207.25 56.9465 207.36 56.8365 207.49 56.8365ZM236.67 40.3665H245.16C245.29 40.3665 245.4 40.4765 245.4 40.6065V49.0965C245.4 49.2265 245.29 49.3365 245.16 49.3365H236.67C236.54 49.3365 236.43 49.2265 236.43 49.0965V40.6065C236.43 40.4665 236.54 40.3665 236.67 40.3665ZM222.08 40.3665H230.57C230.7 40.3665 230.81 40.4765 230.81 40.6065V49.0965C230.81 49.2265 230.7 49.3365 230.57 49.3365H222.08C221.95 49.3365 221.84 49.2265 221.84 49.0965V40.6065C221.84 40.4665 221.95 40.3665 222.08 40.3665ZM207.49 40.3665H215.98C216.11 40.3665 216.22 40.4765 216.22 40.6065V49.0965C216.22 49.2265 216.11 49.3365 215.98 49.3365H207.49C207.36 49.3365 207.25 49.2265 207.25 49.0965V40.6065C207.25 40.4665 207.36 40.3665 207.49 40.3665Z" fill="#261F22"/>
</g>
<g clip-path="url(#clip1_308_11)">
<path fill-rule="evenodd" clip-rule="evenodd" d="M367.4 0.416459H452.99V103.466C452.84 105.986 449.58 106.046 446.05 105.886H366.2C358.2 106.616 361.05 117.266 366.2 116.706H449.3V113.036H456.23V119.256C456.23 120.317 455.809 121.335 455.058 122.085C454.308 122.835 453.291 123.256 452.23 123.256H366.55C354.55 123.426 350.6 122.786 350.6 114.006V101.286H341.44C338.88 101.286 336.88 98.9565 336.88 96.0965C336.88 93.2365 338.88 90.9065 341.44 90.9065H350.6V82.6265H341.44C338.88 82.6265 336.88 80.3065 336.88 77.4365C336.88 74.5665 338.88 72.2565 341.44 72.2565H350.6V63.9665H341.44C338.88 63.9665 336.88 61.6465 336.88 58.7865C336.88 55.9265 338.88 53.5965 341.44 53.5965H350.6V45.3665H341.44C338.88 45.3665 336.88 42.9965 336.88 40.1265C336.88 37.2565 338.88 34.9365 341.44 34.9365H350.6V26.6565H341.44C338.88 26.6565 336.88 24.3665 336.88 21.4765C336.88 18.5865 338.88 16.2865 341.44 16.2865H350.6C350.58 3.01646 350.41 -0.103541 367.4 0.416459ZM383.47 42.2765C382.86 42.2765 382.275 42.0341 381.844 41.6028C381.412 41.1715 381.17 40.5865 381.17 39.9765C381.17 39.3665 381.412 38.7814 381.844 38.3501C382.275 37.9188 382.86 37.6765 383.47 37.6765H417.28C417.89 37.6765 418.475 37.9188 418.906 38.3501C419.338 38.7814 419.58 39.3665 419.58 39.9765C419.58 40.5865 419.338 41.1715 418.906 41.6028C418.475 42.0341 417.89 42.2765 417.28 42.2765H383.47ZM383.47 30.1565C382.885 30.1179 382.336 29.8583 381.936 29.4303C381.535 29.0022 381.312 28.4378 381.312 27.8515C381.312 27.2651 381.535 26.7007 381.936 26.2727C382.336 25.8446 382.885 25.585 383.47 25.5465H423.35C423.665 25.5257 423.982 25.5699 424.28 25.6763C424.577 25.7827 424.85 25.9491 425.081 26.1652C425.311 26.3813 425.495 26.6424 425.621 26.9325C425.747 27.2225 425.812 27.5353 425.812 27.8515C425.812 28.1676 425.747 28.4804 425.621 28.7704C425.495 29.0605 425.311 29.3217 425.081 29.5377C424.85 29.7538 424.577 29.9202 424.28 30.0266C423.982 30.1331 423.665 30.1772 423.35 30.1565H383.47ZM377.57 15.3665H429.26C430.142 15.3717 430.986 15.7242 431.609 16.3476C432.232 16.971 432.585 17.8149 432.59 18.6965V49.1765C432.582 50.0581 432.229 50.9017 431.607 51.5261C430.984 52.1505 430.142 52.506 429.26 52.5165H377.57C376.687 52.5112 375.841 52.1573 375.218 51.5318C374.594 50.9063 374.243 50.0597 374.24 49.1765V18.6465C374.256 17.7728 374.613 16.9401 375.236 16.3269C375.858 15.7137 376.696 15.3689 377.57 15.3665V15.3665Z" fill="#261F22"/>
</g>
<g clip-path="url(#clip2_308_11)">
<path fill-rule="evenodd" clip-rule="evenodd" d="M533.23 34.1765C533.073 34.2798 532.948 34.4254 532.87 34.5965C532.78 34.8081 532.739 35.037 532.75 35.2665C532.876 36.3282 533.291 37.3348 533.95 38.1765V38.1765L536.46 42.1765C537.386 43.7993 538.519 45.2951 539.83 46.6265C541.123 47.8756 542.852 48.5715 544.65 48.5665C545.59 48.5864 546.525 48.4199 547.4 48.0766C548.275 47.7333 549.074 47.2201 549.75 46.5665C551.117 45.1419 552.287 43.5411 553.23 41.8065L556.06 37.1465C556.275 36.6676 556.452 36.1728 556.59 35.6665C557.04 33.8665 555.87 34.2665 554.51 34.2365C554.342 34.2297 554.175 34.213 554.01 34.1865L555.01 30.4965C547.81 31.6365 542.43 26.2865 534.83 29.4265L535.38 33.8865C534.61 33.8865 533.97 33.6765 533.25 34.1765H533.23ZM579.91 25.9565H619.53C620.385 25.9617 621.203 26.3037 621.808 26.9083C622.413 27.5129 622.755 28.3314 622.76 29.1865V55.4365C622.755 56.2915 622.413 57.11 621.808 57.7146C621.203 58.3192 620.385 58.6612 619.53 58.6665H604.77L607.29 65.0165H623.23C624.523 65.0191 625.763 65.5341 626.678 66.4487C627.592 67.3633 628.107 68.603 628.11 69.8965V81.0365C628.113 82.3352 627.601 83.5822 626.686 84.5043C625.771 85.4264 624.529 85.9485 623.23 85.9565H620.76V119.556C620.76 120.535 620.371 121.474 619.679 122.166C618.987 122.858 618.049 123.246 617.07 123.246H516.82C515.836 123.241 514.894 122.847 514.199 122.15C513.504 121.454 513.113 120.511 513.11 119.526V85.9565H510.11C509.466 85.9539 508.828 85.8242 508.234 85.5749C507.64 85.3256 507.101 84.9616 506.647 84.5036C506.194 84.0457 505.836 83.5029 505.592 82.9062C505.349 82.3096 505.226 81.6708 505.23 81.0265V69.8865C505.233 68.594 505.748 67.3553 506.663 66.4423C507.578 65.5292 508.817 65.0165 510.11 65.0165H517.7C517.7 63.6665 517.7 62.9065 517.7 61.5565C517.7 53.0565 531.96 53.6665 536.88 50.4565C537.383 49.3592 537.814 48.2301 538.17 47.0765L538.23 46.9565C537.106 45.7205 536.102 44.3812 535.23 42.9565L532.72 38.9565C531.92 37.8965 531.425 36.6376 531.29 35.3165C531.272 34.8632 531.358 34.4119 531.54 33.9965C531.728 33.5899 532.026 33.2438 532.4 32.9965C532.588 32.8714 532.789 32.7674 533 32.6865C532.829 30.4942 532.789 28.2936 532.88 26.0965C532.954 25.5482 533.071 25.0065 533.23 24.4765C533.767 22.8697 534.684 21.4162 535.902 20.2394C537.121 19.0625 538.605 18.1971 540.23 17.7165C541.8 17.1765 541.23 15.8865 542.79 15.9565C546.53 16.1665 552.32 18.5865 554.55 21.1365C557.63 24.7365 556.83 28.5565 556.72 32.9565C557.046 33.0358 557.342 33.2056 557.576 33.4462C557.81 33.6868 557.97 33.9885 558.04 34.3165C558.176 35.5027 557.938 36.7019 557.36 37.7465C557.353 37.7781 557.335 37.8064 557.31 37.8265L554.45 42.5365C553.439 44.3648 552.185 46.0469 550.72 47.5365L550.66 47.6265L551.12 48.2965C551.62 49.0265 552.18 49.8565 552.71 50.5065C556.65 52.9565 570.52 53.5065 570.76 59.6365L570.97 64.9865H592.23L595.23 58.6365H579.91C579.055 58.6312 578.236 58.2892 577.632 57.6846C577.027 57.08 576.685 56.2615 576.68 55.4065V29.1565C576.69 28.3059 577.035 27.4935 577.639 26.8948C578.244 26.2961 579.059 25.959 579.91 25.9565V25.9565ZM509.91 69.7165C509.859 69.7709 509.831 69.8422 509.83 69.9165V81.0265C509.827 81.0636 509.832 81.1008 509.844 81.1359C509.857 81.1711 509.876 81.2032 509.902 81.2305C509.927 81.2577 509.958 81.2794 509.992 81.2942C510.026 81.309 510.063 81.3166 510.1 81.3165H623.23C623.268 81.318 623.306 81.3114 623.341 81.2973C623.377 81.2831 623.409 81.2616 623.435 81.2342C623.461 81.2068 623.482 81.1742 623.495 81.1384C623.508 81.1026 623.513 81.0644 623.51 81.0265V69.8865C623.51 69.8487 623.502 69.8114 623.486 69.7769C623.471 69.7425 623.448 69.7117 623.42 69.6865C623.368 69.6314 623.296 69.5991 623.22 69.5965C612.74 69.5965 510.22 69.4565 509.94 69.6865L509.91 69.7165ZM517.7 85.9565V118.686H616.23V85.9565H517.7ZM540.15 54.9565C539.836 54.6663 539.586 54.3143 539.415 53.9229C539.244 53.5314 539.156 53.1087 539.156 52.6815C539.156 52.2542 539.244 51.8316 539.415 51.4401C539.586 51.0486 539.836 50.6967 540.15 50.4065C541.532 50.811 542.818 51.4913 543.93 52.4065C544.246 52.2765 544.589 52.2217 544.93 52.2465C546.236 51.41 547.619 50.7001 549.06 50.1265C550.91 51.9265 550.72 53.5965 548.9 55.1265C548.076 54.8921 547.293 54.5312 546.58 54.0565C546.546 54.3271 546.479 54.5925 546.38 54.8465L548.38 62.6565C549.92 59.4165 551.52 56.0565 551.92 51.8665C551.204 51.0005 550.536 50.0958 549.92 49.1565C549.77 48.9465 549.64 48.7565 549.52 48.5665C548.086 49.52 546.391 50.0056 544.67 49.9565C542.736 49.9766 540.859 49.3025 539.38 48.0565C539.012 49.3088 538.498 50.5137 537.85 51.6465C537.809 51.7043 537.762 51.7579 537.71 51.8065C538.415 55.5932 539.69 59.2513 541.49 62.6565L543.49 54.8465C543.236 54.4636 543.097 54.0159 543.09 53.5565C542.184 54.1929 541.166 54.6542 540.09 54.9165L540.15 54.9565Z" fill="#261F22"/>
</g>
<defs>
<clipPath id="clip0_308_11">
<rect width="122.88" height="115.49" fill="white" transform="translate(165 7.75647)"/>
</clipPath>
<clipPath id="clip1_308_11">
<rect width="119.35" height="122.88" fill="white" transform="translate(336.88 0.366455)"/>
</clipPath>
<clipPath id="clip2_308_11">
<rect width="122.88" height="107.29" fill="white" transform="translate(505.23 15.9564)"/>
</clipPath>
</defs>
</svg>
