<svg width="124" height="109" viewBox="0 0 124 109" fill="none" xmlns="http://www.w3.org/2000/svg">
<g clip-path="url(#clip0_308_9)">
<path fill-rule="evenodd" clip-rule="evenodd" d="M28.2299 19.1765C28.0728 19.2798 27.9481 19.4254 27.8699 19.5965C27.7805 19.8081 27.7395 20.037 27.75 20.2665C27.8756 21.3282 28.2907 22.3348 28.9499 23.1765L31.4599 27.1765C32.3862 28.7993 33.519 30.2951 34.8299 31.6265C36.1231 32.8756 37.8521 33.5715 39.6499 33.5665C40.59 33.5864 41.5247 33.4199 42.4 33.0766C43.2753 32.7333 44.074 32.2201 44.75 31.5665C46.1168 30.1419 47.2872 28.5411 48.2299 26.8065L51.06 22.1465C51.2747 21.6676 51.4519 21.1728 51.59 20.6665C52.04 18.8665 50.8699 19.2665 49.5099 19.2365C49.3424 19.2297 49.1755 19.213 49.0099 19.1865L50.0099 15.4965C42.8099 16.6365 37.43 11.2865 29.83 14.4265L30.3799 18.8865C29.6099 18.8865 28.9699 18.6765 28.25 19.1765H28.2299ZM74.91 10.9565H114.53C115.385 10.9617 116.203 11.3037 116.808 11.9083C117.413 12.5129 117.755 13.3314 117.76 14.1865V40.4365C117.755 41.2915 117.413 42.11 116.808 42.7146C116.203 43.3192 115.385 43.6612 114.53 43.6665H99.77L102.29 50.0165H118.23C119.523 50.0191 120.763 50.5341 121.678 51.4487C122.592 52.3633 123.107 53.603 123.11 54.8965V66.0365C123.113 67.3352 122.601 68.5822 121.686 69.5043C120.771 70.4264 119.529 70.9485 118.23 70.9565H115.76V104.556C115.76 105.535 115.371 106.474 114.679 107.166C113.987 107.858 113.049 108.246 112.07 108.246H11.82C10.8359 108.241 9.89379 107.847 9.19888 107.15C8.50397 106.454 8.11257 105.511 8.10995 104.526V70.9565H5.10995C4.46563 70.9539 3.82814 70.8242 3.234 70.5749C2.63985 70.3256 2.1007 69.9616 1.64742 69.5036C1.19414 69.0457 0.835622 68.5029 0.592393 67.9062C0.349165 67.3096 0.226 66.6708 0.22995 66.0265V54.8865C0.232599 53.594 0.74791 52.3553 1.6628 51.4423C2.57769 50.5292 3.81742 50.0165 5.10995 50.0165H12.7C12.7 48.6665 12.7 47.9065 12.7 46.5565C12.7 38.0565 26.9599 38.6665 31.8799 35.4565C32.3833 34.3592 32.8142 33.2301 33.1699 32.0765L33.2299 31.9565C32.1063 30.7205 31.1018 29.3812 30.2299 27.9565L27.7199 23.9565C26.9198 22.8965 26.4252 21.6376 26.2899 20.3165C26.2724 19.8632 26.3579 19.4119 26.5399 18.9965C26.7285 18.5899 27.0262 18.2438 27.4 17.9965C27.5879 17.8714 27.7892 17.7674 28 17.6865C27.8288 15.4942 27.7887 13.2936 27.8799 11.0965C27.9542 10.5482 28.0713 10.0065 28.2299 9.47647C28.7669 7.8697 29.6836 6.4162 30.9022 5.23935C32.1208 4.0625 33.6054 3.19706 35.2299 2.71647C36.7999 2.17647 36.2299 0.886475 37.79 0.956475C41.53 1.16647 47.32 3.58647 49.5499 6.13647C52.63 9.73647 51.83 13.5565 51.72 17.9565C52.0457 18.0358 52.3425 18.2056 52.576 18.4462C52.8095 18.6868 52.9704 18.9885 53.04 19.3165C53.1762 20.5027 52.9385 21.7019 52.36 22.7465C52.353 22.7781 52.3354 22.8064 52.31 22.8265L49.45 27.5365C48.4395 29.3648 47.1846 31.0469 45.72 32.5365L45.66 32.6265L46.1199 33.2965C46.6199 34.0265 47.18 34.8565 47.7099 35.5065C51.6499 37.9565 65.52 38.5065 65.7599 44.6365L65.9699 49.9865H87.2299L90.2299 43.6365H74.91C74.0549 43.6312 73.2364 43.2892 72.6318 42.6846C72.0272 42.08 71.6852 41.2615 71.6799 40.4065V14.1565C71.6904 13.3059 72.0351 12.4935 72.6394 11.8948C73.2437 11.2961 74.0593 10.959 74.91 10.9565ZM4.90995 54.7165C4.85944 54.7709 4.83094 54.8422 4.82995 54.9165V66.0265C4.82719 66.0636 4.83214 66.1008 4.84447 66.1359C4.85679 66.1711 4.87625 66.2032 4.9016 66.2305C4.92695 66.2577 4.95765 66.2794 4.99179 66.2942C5.02592 66.309 5.06275 66.3166 5.09995 66.3165H118.23C118.268 66.318 118.306 66.3114 118.341 66.2973C118.377 66.2831 118.409 66.2616 118.435 66.2342C118.461 66.2068 118.482 66.1742 118.495 66.1384C118.508 66.1026 118.513 66.0644 118.51 66.0265V54.8865C118.51 54.8487 118.502 54.8114 118.486 54.7769C118.471 54.7425 118.448 54.7117 118.42 54.6865C118.368 54.6315 118.296 54.5991 118.22 54.5965C107.74 54.5965 5.21995 54.4565 4.93995 54.6865L4.90995 54.7165ZM12.7 70.9565V103.686H111.23V70.9565H12.7ZM35.1499 39.9565C34.8364 39.6663 34.5862 39.3143 34.4151 38.9229C34.2441 38.5314 34.1557 38.1087 34.1557 37.6815C34.1557 37.2542 34.2441 36.8316 34.4151 36.4401C34.5862 36.0486 34.8364 35.6967 35.1499 35.4065C36.5321 35.811 37.818 36.4913 38.93 37.4065C39.2464 37.2765 39.5887 37.2217 39.93 37.2465C41.236 36.41 42.619 35.7001 44.06 35.1265C45.91 36.9265 45.7199 38.5965 43.8999 40.1265C43.0759 39.8921 42.2932 39.5312 41.5799 39.0565C41.5465 39.3271 41.4793 39.5925 41.38 39.8465L43.38 47.6565C44.92 44.4165 46.5199 41.0565 46.9199 36.8665C46.2041 36.0005 45.5365 35.0958 44.9199 34.1565C44.7699 33.9465 44.6399 33.7565 44.52 33.5665C43.0858 34.52 41.3914 35.0056 39.6699 34.9565C37.7361 34.9767 35.8591 34.3025 34.38 33.0565C34.012 34.3088 33.4985 35.5137 32.8499 36.6465C32.8087 36.7043 32.7618 36.7579 32.7099 36.8065C33.4151 40.5932 34.6896 44.2513 36.4899 47.6565L38.4899 39.8465C38.2359 39.4636 38.097 39.0159 38.09 38.5565C37.1835 39.1929 36.166 39.6542 35.09 39.9165L35.1499 39.9565Z" fill="#261F22"/>
</g>
<defs>
<clipPath id="clip0_308_9">
<rect width="122.88" height="107.29" fill="white" transform="translate(0.22998 0.956421)"/>
</clipPath>
</defs>
</svg>
